# Blender 4.5.3 LTS
# www.blender.org
mtllib table_walls.mtl
o Cube.001
v 1.796375 0.127305 -2.356275
v -1.812288 0.111392 -2.373029
v 1.812288 0.111392 2.636194
v -1.812289 0.111392 2.636194
v 1.796375 1.758675 -2.356275
v -1.812288 1.742762 -2.373029
v 1.812288 1.742762 2.636194
v -1.812289 1.742762 2.636194
vn -0.0046 -0.0000 1.0000
vn 1.0000 -0.0000 -0.0000
vn -1.0000 -0.0000 0.0032
vn -0.0000 -0.0000 -1.0000
vt 0.000000 0.000000
s 0
f 2/1/1 1/1/1 5/1/1 6/1/1
f 4/1/2 2/1/2 6/1/2 8/1/2
f 3/1/3 7/1/3 5/1/3 1/1/3
f 4/1/4 8/1/4 7/1/4 3/1/4
