# Blender 4.5.3 LTS
# www.blender.org
mtllib base.mtl
o Base
v 1.708731 -0.123514 -2.122651
v 1.674521 -0.140543 -2.122651
v 1.660350 -0.174753 -2.122651
v 1.678010 -0.123514 -2.227277
v 1.649230 -0.140543 -2.208781
v 1.637310 -0.174753 -2.201120
v 1.581389 -0.140543 -2.267566
v 1.575503 -0.174753 -2.254677
v 1.486583 -0.123514 -2.306444
v 1.492536 -0.140543 -2.280341
v 1.494552 -0.174753 -2.266315
v 1.388478 -0.123514 -2.268905
v 1.410881 -0.140543 -2.243051
v 1.420161 -0.174753 -2.232342
v 1.329525 -0.123514 -2.177172
v 1.362349 -0.140543 -2.167534
v 1.375946 -0.174753 -2.163542
v 1.329525 -0.123514 -2.068129
v 1.362349 -0.140543 -2.077767
v 1.375946 -0.174753 -2.081759
v 1.388478 -0.123514 -1.976396
v 1.410881 -0.140543 -2.002250
v 1.420161 -0.174753 -2.012960
v 1.487667 -0.123514 -1.931098
v 1.492536 -0.140543 -1.964960
v 1.494552 -0.174753 -1.978986
v 1.595601 -0.123514 -1.946616
v 1.581389 -0.140543 -1.977735
v 1.575503 -0.174753 -1.990625
v 1.678010 -0.123514 -2.018024
v 1.649230 -0.140543 -2.036520
v 1.637310 -0.174753 -2.044181
v 1.785074 -0.123514 -2.122015
v 1.785074 -0.123514 -2.016231
v 1.785074 -0.123514 -2.227798
v 1.785074 -0.123514 -1.939160
v 1.487667 -0.123514 -1.852612
v 1.595601 -0.123514 -1.852612
v 1.785074 -0.123514 -1.852612
v 1.371176 -0.123514 -1.852612
v 1.247819 -0.123514 -1.958989
v 1.247819 -0.123514 -1.852612
v 1.247819 -0.123514 -2.066020
v 1.247819 -0.123514 -2.180673
v 1.595601 -0.123514 -2.298685
v 1.247819 -0.123514 -2.270548
v 1.247819 -0.123514 -2.310745
v 1.785074 -0.123514 -2.299554
v 1.595601 -0.123514 -2.391727
v 1.785074 -0.123514 -2.391727
v 1.485500 -0.123514 -2.391727
v 1.247819 -0.123514 -2.391727
v -0.000000 -0.123514 -1.958989
v -0.000000 -0.123514 -1.852612
v -0.000000 -0.123514 -2.066020
v -0.000000 -0.123514 -2.180673
v -0.000000 -0.123514 -2.270548
v -0.000000 -0.123514 -2.310745
v -0.000000 -0.123514 -2.391727
v 1.487667 -0.123514 0.000000
v 1.595601 -0.123514 0.000000
v 1.785074 -0.123514 0.000000
v 1.371176 -0.123514 0.000000
v 1.247819 -0.123514 0.000000
v -0.000000 -0.123514 0.000000
v -1.708731 -0.123514 -2.122651
v -1.674521 -0.140543 -2.122651
v -1.660350 -0.174753 -2.122651
v -1.678010 -0.123514 -2.227277
v -1.649231 -0.140543 -2.208781
v -1.637310 -0.174753 -2.201120
v -1.581389 -0.140543 -2.267566
v -1.575503 -0.174753 -2.254677
v -1.486584 -0.123514 -2.306444
v -1.492536 -0.140543 -2.280341
v -1.494553 -0.174753 -2.266315
v -1.388478 -0.123514 -2.268905
v -1.410881 -0.140543 -2.243051
v -1.420161 -0.174753 -2.232342
v -1.329525 -0.123514 -2.177172
v -1.362350 -0.140543 -2.167534
v -1.375946 -0.174753 -2.163542
v -1.329525 -0.123514 -2.068129
v -1.362350 -0.140543 -2.077767
v -1.375946 -0.174753 -2.081759
v -1.388478 -0.123514 -1.976396
v -1.410881 -0.140543 -2.002250
v -1.420161 -0.174753 -2.012960
v -1.487667 -0.123514 -1.931098
v -1.492536 -0.140543 -1.964960
v -1.494553 -0.174753 -1.978986
v -1.595601 -0.123514 -1.946616
v -1.581389 -0.140543 -1.977735
v -1.575503 -0.174753 -1.990625
v -1.678010 -0.123514 -2.018024
v -1.649231 -0.140543 -2.036520
v -1.637310 -0.174753 -2.044181
v -1.785074 -0.123514 -2.122015
v -1.785074 -0.123514 -2.016231
v -1.785074 -0.123514 -2.227798
v -1.785074 -0.123514 -1.939160
v -1.487667 -0.123514 -1.852612
v -1.595601 -0.123514 -1.852612
v -1.785074 -0.123514 -1.852612
v -1.371176 -0.123514 -1.852612
v -1.247819 -0.123514 -1.958989
v -1.247819 -0.123514 -1.852612
v -1.247819 -0.123514 -2.066020
v -1.247819 -0.123514 -2.180673
v -1.595601 -0.123514 -2.298685
v -1.247819 -0.123514 -2.270548
v -1.247819 -0.123514 -2.310745
v -1.785074 -0.123514 -2.299554
v -1.595601 -0.123514 -2.391727
v -1.785074 -0.123514 -2.391727
v -1.485500 -0.123514 -2.391727
v -1.247819 -0.123514 -2.391727
v -1.487667 -0.123514 0.000000
v -1.595601 -0.123514 0.000000
v -1.785074 -0.123514 0.000000
v -1.371176 -0.123514 0.000000
v -1.247819 -0.123514 0.000000
v 1.708731 -0.123514 2.122651
v 1.674521 -0.140543 2.122651
v 1.660350 -0.174753 2.122651
v 1.678010 -0.123514 2.227277
v 1.649230 -0.140543 2.208781
v 1.637310 -0.174753 2.201120
v 1.581389 -0.140543 2.267566
v 1.575503 -0.174753 2.254677
v 1.486583 -0.123514 2.306444
v 1.492536 -0.140543 2.280341
v 1.494552 -0.174753 2.266315
v 1.388478 -0.123514 2.268905
v 1.410881 -0.140543 2.243051
v 1.420161 -0.174753 2.232342
v 1.329525 -0.123514 2.177172
v 1.362349 -0.140543 2.167534
v 1.375946 -0.174753 2.163542
v 1.329525 -0.123514 2.068129
v 1.362349 -0.140543 2.077767
v 1.375946 -0.174753 2.081759
v 1.388478 -0.123514 1.976396
v 1.410881 -0.140543 2.002250
v 1.420161 -0.174753 2.012960
v 1.487667 -0.123514 1.931098
v 1.492536 -0.140543 1.964960
v 1.494552 -0.174753 1.978986
v 1.595601 -0.123514 1.946616
v 1.581389 -0.140543 1.977735
v 1.575503 -0.174753 1.990625
v 1.678010 -0.123514 2.018024
v 1.649230 -0.140543 2.036520
v 1.637310 -0.174753 2.044181
v 1.785074 -0.123514 2.122015
v 1.785074 -0.123514 2.016231
v 1.785074 -0.123514 2.227798
v 1.785074 -0.123514 1.939160
v 1.487667 -0.123514 1.852612
v 1.595601 -0.123514 1.852612
v 1.785074 -0.123514 1.852612
v 1.371176 -0.123514 1.852612
v 1.247819 -0.123514 1.958989
v 1.247819 -0.123514 1.852612
v 1.247819 -0.123514 2.066020
v 1.247819 -0.123514 2.180673
v 1.595601 -0.123514 2.298685
v 1.247819 -0.123514 2.270548
v 1.247819 -0.123514 2.310745
v 1.785074 -0.123514 2.299554
v 1.595601 -0.123514 2.391727
v 1.785074 -0.123514 2.391727
v 1.485500 -0.123514 2.391727
v 1.247819 -0.123514 2.391727
v -0.000000 -0.123514 1.958989
v -0.000000 -0.123514 1.852612
v -0.000000 -0.123514 2.066020
v -0.000000 -0.123514 2.180673
v -0.000000 -0.123514 2.270548
v -0.000000 -0.123514 2.310745
v -0.000000 -0.123514 2.391727
v -1.708731 -0.123514 2.122651
v -1.674521 -0.140543 2.122651
v -1.660350 -0.174753 2.122651
v -1.678010 -0.123514 2.227277
v -1.649231 -0.140543 2.208781
v -1.637310 -0.174753 2.201120
v -1.581389 -0.140543 2.267566
v -1.575503 -0.174753 2.254677
v -1.486584 -0.123514 2.306444
v -1.492536 -0.140543 2.280341
v -1.494553 -0.174753 2.266315
v -1.388478 -0.123514 2.268905
v -1.410881 -0.140543 2.243051
v -1.420161 -0.174753 2.232342
v -1.329525 -0.123514 2.177172
v -1.362350 -0.140543 2.167534
v -1.375946 -0.174753 2.163542
v -1.329525 -0.123514 2.068129
v -1.362350 -0.140543 2.077767
v -1.375946 -0.174753 2.081759
v -1.388478 -0.123514 1.976396
v -1.410881 -0.140543 2.002250
v -1.420161 -0.174753 2.012960
v -1.487667 -0.123514 1.931098
v -1.492536 -0.140543 1.964960
v -1.494553 -0.174753 1.978986
v -1.595601 -0.123514 1.946616
v -1.581389 -0.140543 1.977735
v -1.575503 -0.174753 1.990625
v -1.678010 -0.123514 2.018024
v -1.649231 -0.140543 2.036520
v -1.637310 -0.174753 2.044181
v -1.785074 -0.123514 2.122015
v -1.785074 -0.123514 2.016231
v -1.785074 -0.123514 2.227798
v -1.785074 -0.123514 1.939160
v -1.487667 -0.123514 1.852612
v -1.595601 -0.123514 1.852612
v -1.785074 -0.123514 1.852612
v -1.371176 -0.123514 1.852612
v -1.247819 -0.123514 1.958989
v -1.247819 -0.123514 1.852612
v -1.247819 -0.123514 2.066020
v -1.247819 -0.123514 2.180673
v -1.595601 -0.123514 2.298685
v -1.247819 -0.123514 2.270548
v -1.247819 -0.123514 2.310745
v -1.785074 -0.123514 2.299554
v -1.595601 -0.123514 2.391727
v -1.785074 -0.123514 2.391727
v -1.485500 -0.123514 2.391727
v -1.247819 -0.123514 2.391727
vn -0.4419 0.8876 0.1297
vn -0.8917 0.3693 0.2618
vn -0.3016 0.8876 0.3480
vn -0.6086 0.3693 0.7023
vn -0.0524 0.8614 0.5052
vn -0.1323 0.3693 0.9198
vn 0.1925 0.8656 0.4624
vn 0.3860 0.3693 0.8453
vn 0.3874 0.8876 0.2490
vn 0.7818 0.3693 0.5024
vn 0.4605 0.8876 -0.0000
vn 0.9293 0.3693 -0.0000
vn 0.3874 0.8876 -0.2490
vn 0.7818 0.3693 -0.5024
vn 0.1913 0.8876 -0.4189
vn 0.3860 0.3693 -0.8453
vn -0.0655 0.8876 -0.4558
vn -0.1323 0.3693 -0.9198
vn -0.3016 0.8876 -0.3480
vn -0.6086 0.3693 -0.7023
vn -0.4419 0.8876 -0.1297
vn -0.8917 0.3693 -0.2618
vn -0.0000 1.0000 -0.0000
vn 0.4419 0.8876 0.1297
vn 0.8917 0.3693 0.2618
vn 0.3016 0.8876 0.3480
vn 0.6086 0.3693 0.7023
vn 0.0524 0.8614 0.5052
vn 0.1323 0.3693 0.9198
vn -0.1925 0.8656 0.4624
vn -0.3860 0.3693 0.8453
vn -0.3874 0.8876 0.2490
vn -0.7818 0.3693 0.5024
vn -0.4605 0.8876 -0.0000
vn -0.9293 0.3693 -0.0000
vn -0.3874 0.8876 -0.2490
vn -0.7818 0.3693 -0.5024
vn -0.1913 0.8876 -0.4189
vn -0.3860 0.3693 -0.8453
vn 0.0655 0.8876 -0.4558
vn 0.1323 0.3693 -0.9198
vn 0.3016 0.8876 -0.3480
vn 0.6086 0.3693 -0.7023
vn 0.4419 0.8876 -0.1297
vn 0.8917 0.3693 -0.2618
vn -0.0524 0.8614 -0.5052
vn 0.1925 0.8656 -0.4624
vn 0.1913 0.8876 0.4189
vn -0.0655 0.8876 0.4558
vn 0.0524 0.8614 -0.5052
vn -0.1925 0.8656 -0.4624
vn -0.1913 0.8876 0.4189
vn 0.0655 0.8876 0.4558
vt 0.545455 0.750000
vt 0.636364 0.750000
vt 0.636364 0.875000
vt 0.545455 0.875000
vt 0.636364 1.000000
vt 0.545455 1.000000
vt 0.727273 0.750000
vt 0.727273 0.875000
vt 0.727273 1.000000
vt 0.818182 0.750000
vt 0.818182 0.875000
vt 0.818182 1.000000
vt 0.909091 0.750000
vt 0.909091 0.875000
vt 0.909091 1.000000
vt 1.000000 0.750000
vt 1.000000 0.875000
vt 1.000000 1.000000
vt 0.000000 0.750000
vt 0.090909 0.750000
vt 0.090909 0.875000
vt 0.000000 0.875000
vt 0.090909 1.000000
vt 0.000000 1.000000
vt 0.181818 0.750000
vt 0.181818 0.875000
vt 0.181818 1.000000
vt 0.272727 0.750000
vt 0.272727 0.875000
vt 0.272727 1.000000
vt 0.363636 0.750000
vt 0.363636 0.875000
vt 0.363636 1.000000
vt 0.454545 0.750000
vt 0.454545 0.875000
vt 0.454545 1.000000
vt 0.000000 0.000000
s 0
f 1/1/1 4/2/1 5/3/1 2/4/1
f 2/4/2 5/3/2 6/5/2 3/6/2
f 4/2/3 45/7/3 7/8/3 5/3/3
f 5/3/4 7/8/4 8/9/4 6/5/4
f 45/7/5 9/10/5 10/11/5 7/8/5
f 7/8/6 10/11/6 11/12/6 8/9/6
f 9/10/7 12/13/7 13/14/7 10/11/7
f 10/11/8 13/14/8 14/15/8 11/12/8
f 12/13/9 15/16/9 16/17/9 13/14/9
f 13/14/10 16/17/10 17/18/10 14/15/10
f 15/19/11 18/20/11 19/21/11 16/22/11
f 16/22/12 19/21/12 20/23/12 17/24/12
f 18/20/13 21/25/13 22/26/13 19/21/13
f 19/21/14 22/26/14 23/27/14 20/23/14
f 21/25/15 24/28/15 25/29/15 22/26/15
f 22/26/16 25/29/16 26/30/16 23/27/16
f 24/28/17 27/31/17 28/32/17 25/29/17
f 25/29/18 28/32/18 29/33/18 26/30/18
f 27/31/19 30/34/19 31/35/19 28/32/19
f 28/32/20 31/35/20 32/36/20 29/33/20
f 30/34/21 1/1/21 2/4/21 31/35/21
f 31/35/22 2/4/22 3/6/22 32/36/22
f 1/1/23 30/34/23 34/34/23 33/1/23
f 4/2/23 1/1/23 33/1/23 35/2/23
f 45/7/23 4/2/23 35/2/23 48/7/23
f 30/34/23 27/31/23 36/31/23 34/34/23
f 27/31/23 24/28/23 37/28/23 38/31/23
f 39/37/23 36/31/23 27/31/23 38/31/23
f 37/28/23 24/28/23 21/25/23 40/37/23
f 40/37/23 21/25/23 41/25/23 42/37/23
f 21/25/23 18/20/23 43/20/23 41/25/23
f 18/20/23 15/19/23 44/19/23 43/20/23
f 15/16/23 12/13/23 46/13/23 44/16/23
f 12/13/23 9/10/23 47/10/23 46/13/23
f 48/37/23 50/37/23 49/37/23 45/37/23
f 45/37/23 49/37/23 51/37/23 9/37/23
f 9/37/23 51/37/23 52/37/23 47/37/23
f 46/13/23 47/10/23 58/10/23 57/13/23
f 42/37/23 41/25/23 53/25/23 54/37/23
f 47/37/23 52/37/23 59/37/23 58/37/23
f 44/16/23 46/13/23 57/13/23 56/16/23
f 43/20/23 44/19/23 56/19/23 55/20/23
f 41/25/23 43/20/23 55/20/23 53/25/23
f 37/28/23 40/37/23 63/37/23 60/28/23
f 39/37/23 38/31/23 61/31/23 62/37/23
f 38/31/23 37/28/23 60/28/23 61/31/23
f 40/37/23 42/37/23 64/37/23 63/37/23
f 42/37/23 54/37/23 65/37/23 64/37/23
f 66/1/24 67/4/24 70/3/24 69/2/24
f 67/4/25 68/6/25 71/5/25 70/3/25
f 69/2/26 70/3/26 72/8/26 110/7/26
f 70/3/27 71/5/27 73/9/27 72/8/27
f 110/7/28 72/8/28 75/11/28 74/10/28
f 72/8/29 73/9/29 76/12/29 75/11/29
f 74/10/30 75/11/30 78/14/30 77/13/30
f 75/11/31 76/12/31 79/15/31 78/14/31
f 77/13/32 78/14/32 81/17/32 80/16/32
f 78/14/33 79/15/33 82/18/33 81/17/33
f 80/19/34 81/22/34 84/21/34 83/20/34
f 81/22/35 82/24/35 85/23/35 84/21/35
f 83/20/36 84/21/36 87/26/36 86/25/36
f 84/21/37 85/23/37 88/27/37 87/26/37
f 86/25/38 87/26/38 90/29/38 89/28/38
f 87/26/39 88/27/39 91/30/39 90/29/39
f 89/28/40 90/29/40 93/32/40 92/31/40
f 90/29/41 91/30/41 94/33/41 93/32/41
f 92/31/42 93/32/42 96/35/42 95/34/42
f 93/32/43 94/33/43 97/36/43 96/35/43
f 95/34/44 96/35/44 67/4/44 66/1/44
f 96/35/45 97/36/45 68/6/45 67/4/45
f 66/1/23 98/1/23 99/34/23 95/34/23
f 69/2/23 100/2/23 98/1/23 66/1/23
f 110/7/23 113/7/23 100/2/23 69/2/23
f 95/34/23 99/34/23 101/31/23 92/31/23
f 92/31/23 103/31/23 102/28/23 89/28/23
f 104/37/23 103/31/23 92/31/23 101/31/23
f 102/28/23 105/37/23 86/25/23 89/28/23
f 105/37/23 107/37/23 106/25/23 86/25/23
f 86/25/23 106/25/23 108/20/23 83/20/23
f 83/20/23 108/20/23 109/19/23 80/19/23
f 80/16/23 109/16/23 111/13/23 77/13/23
f 77/13/23 111/13/23 112/10/23 74/10/23
f 113/37/23 110/37/23 114/37/23 115/37/23
f 110/37/23 74/37/23 116/37/23 114/37/23
f 74/37/23 112/37/23 117/37/23 116/37/23
f 111/13/23 57/13/23 58/10/23 112/10/23
f 107/37/23 54/37/23 53/25/23 106/25/23
f 112/37/23 58/37/23 59/37/23 117/37/23
f 109/16/23 56/16/23 57/13/23 111/13/23
f 108/20/23 55/20/23 56/19/23 109/19/23
f 106/25/23 53/25/23 55/20/23 108/20/23
f 102/28/23 118/28/23 121/37/23 105/37/23
f 104/37/23 120/37/23 119/31/23 103/31/23
f 103/31/23 119/31/23 118/28/23 102/28/23
f 105/37/23 121/37/23 122/37/23 107/37/23
f 107/37/23 122/37/23 65/37/23 54/37/23
f 123/1/21 124/4/21 127/3/21 126/2/21
f 124/4/22 125/6/22 128/5/22 127/3/22
f 126/2/19 127/3/19 129/8/19 167/7/19
f 127/3/20 128/5/20 130/9/20 129/8/20
f 167/7/46 129/8/46 132/11/46 131/10/46
f 129/8/18 130/9/18 133/12/18 132/11/18
f 131/10/47 132/11/47 135/14/47 134/13/47
f 132/11/16 133/12/16 136/15/16 135/14/16
f 134/13/13 135/14/13 138/17/13 137/16/13
f 135/14/14 136/15/14 139/18/14 138/17/14
f 137/19/11 138/22/11 141/21/11 140/20/11
f 138/22/12 139/24/12 142/23/12 141/21/12
f 140/20/9 141/21/9 144/26/9 143/25/9
f 141/21/10 142/23/10 145/27/10 144/26/10
f 143/25/48 144/26/48 147/29/48 146/28/48
f 144/26/8 145/27/8 148/30/8 147/29/8
f 146/28/49 147/29/49 150/32/49 149/31/49
f 147/29/6 148/30/6 151/33/6 150/32/6
f 149/31/3 150/32/3 153/35/3 152/34/3
f 150/32/4 151/33/4 154/36/4 153/35/4
f 152/34/1 153/35/1 124/4/1 123/1/1
f 153/35/2 154/36/2 125/6/2 124/4/2
f 123/1/23 155/1/23 156/34/23 152/34/23
f 126/2/23 157/2/23 155/1/23 123/1/23
f 167/7/23 170/7/23 157/2/23 126/2/23
f 152/34/23 156/34/23 158/31/23 149/31/23
f 149/31/23 160/31/23 159/28/23 146/28/23
f 161/37/23 160/31/23 149/31/23 158/31/23
f 159/28/23 162/37/23 143/25/23 146/28/23
f 162/37/23 164/37/23 163/25/23 143/25/23
f 143/25/23 163/25/23 165/20/23 140/20/23
f 140/20/23 165/20/23 166/19/23 137/19/23
f 137/16/23 166/16/23 168/13/23 134/13/23
f 134/13/23 168/13/23 169/10/23 131/10/23
f 170/37/23 167/37/23 171/37/23 172/37/23
f 167/37/23 131/37/23 173/37/23 171/37/23
f 131/37/23 169/37/23 174/37/23 173/37/23
f 168/13/23 179/13/23 180/10/23 169/10/23
f 164/37/23 176/37/23 175/25/23 163/25/23
f 169/37/23 180/37/23 181/37/23 174/37/23
f 166/16/23 178/16/23 179/13/23 168/13/23
f 165/20/23 177/20/23 178/19/23 166/19/23
f 163/25/23 175/25/23 177/20/23 165/20/23
f 159/28/23 60/28/23 63/37/23 162/37/23
f 161/37/23 62/37/23 61/31/23 160/31/23
f 160/31/23 61/31/23 60/28/23 159/28/23
f 162/37/23 63/37/23 64/37/23 164/37/23
f 164/37/23 64/37/23 65/37/23 176/37/23
f 182/1/44 185/2/44 186/3/44 183/4/44
f 183/4/45 186/3/45 187/5/45 184/6/45
f 185/2/42 226/7/42 188/8/42 186/3/42
f 186/3/43 188/8/43 189/9/43 187/5/43
f 226/7/50 190/10/50 191/11/50 188/8/50
f 188/8/41 191/11/41 192/12/41 189/9/41
f 190/10/51 193/13/51 194/14/51 191/11/51
f 191/11/39 194/14/39 195/15/39 192/12/39
f 193/13/36 196/16/36 197/17/36 194/14/36
f 194/14/37 197/17/37 198/18/37 195/15/37
f 196/19/34 199/20/34 200/21/34 197/22/34
f 197/22/35 200/21/35 201/23/35 198/24/35
f 199/20/32 202/25/32 203/26/32 200/21/32
f 200/21/33 203/26/33 204/27/33 201/23/33
f 202/25/52 205/28/52 206/29/52 203/26/52
f 203/26/31 206/29/31 207/30/31 204/27/31
f 205/28/53 208/31/53 209/32/53 206/29/53
f 206/29/29 209/32/29 210/33/29 207/30/29
f 208/31/26 211/34/26 212/35/26 209/32/26
f 209/32/27 212/35/27 213/36/27 210/33/27
f 211/34/24 182/1/24 183/4/24 212/35/24
f 212/35/25 183/4/25 184/6/25 213/36/25
f 182/1/23 211/34/23 215/34/23 214/1/23
f 185/2/23 182/1/23 214/1/23 216/2/23
f 226/7/23 185/2/23 216/2/23 229/7/23
f 211/34/23 208/31/23 217/31/23 215/34/23
f 208/31/23 205/28/23 218/28/23 219/31/23
f 220/37/23 217/31/23 208/31/23 219/31/23
f 218/28/23 205/28/23 202/25/23 221/37/23
f 221/37/23 202/25/23 222/25/23 223/37/23
f 202/25/23 199/20/23 224/20/23 222/25/23
f 199/20/23 196/19/23 225/19/23 224/20/23
f 196/16/23 193/13/23 227/13/23 225/16/23
f 193/13/23 190/10/23 228/10/23 227/13/23
f 229/37/23 231/37/23 230/37/23 226/37/23
f 226/37/23 230/37/23 232/37/23 190/37/23
f 190/37/23 232/37/23 233/37/23 228/37/23
f 227/13/23 228/10/23 180/10/23 179/13/23
f 223/37/23 222/25/23 175/25/23 176/37/23
f 228/37/23 233/37/23 181/37/23 180/37/23
f 225/16/23 227/13/23 179/13/23 178/16/23
f 224/20/23 225/19/23 178/19/23 177/20/23
f 222/25/23 224/20/23 177/20/23 175/25/23
f 218/28/23 221/37/23 121/37/23 118/28/23
f 220/37/23 219/31/23 119/31/23 120/37/23
f 219/31/23 218/28/23 118/28/23 119/31/23
f 221/37/23 223/37/23 122/37/23 121/37/23
f 223/37/23 176/37/23 65/37/23 122/37/23
