# Blender 4.5.3 LTS
# www.blender.org
mtllib rim.mtl
o Rim
v 1.785074 -0.123514 -2.122015
v 1.785074 -0.123514 -2.016231
v 1.785074 -0.123514 -2.227798
v 1.785074 -0.123514 -1.939160
v 1.785074 -0.123514 -1.852612
v 1.785074 -0.123514 -2.299554
v 1.595601 -0.123514 -2.391727
v 1.785074 -0.123514 -2.391727
v 1.485500 -0.123514 -2.391727
v 1.247819 -0.123514 -2.391727
v -0.000000 -0.123514 -2.391727
v 1.785074 -0.123514 0.000000
v -1.595601 -0.123514 -2.391727
v -1.785074 -0.123514 -2.391727
v -1.485500 -0.123514 -2.391727
v -1.247819 -0.123514 -2.391727
v 1.785074 -0.123514 2.122015
v 1.785074 -0.123514 2.016231
v 1.785074 -0.123514 2.227798
v 1.785074 -0.123514 1.939160
v 1.785074 -0.123514 1.852612
v 1.785074 -0.123514 2.299554
v 1.785074 -0.123514 2.391727
v 1.950875 -0.123514 -2.122015
v 1.950875 -0.123514 -2.016231
v 1.950875 -0.123514 -2.227798
v 1.950875 -0.123514 -1.939160
v 1.950875 -0.123514 -1.852612
v 1.950875 -0.123514 -2.299554
v 1.950875 -0.123514 -2.391727
v 1.950875 -0.123514 0.000000
v 1.950875 -0.123514 2.122015
v 1.950875 -0.123514 2.016231
v 1.950875 -0.123514 2.227798
v 1.950875 -0.123514 1.939160
v 1.950875 -0.123514 1.852612
v 1.950875 -0.123514 2.299554
v 1.950875 -0.123514 2.391727
v 1.785074 0.012083 -2.122015
v 1.785074 0.012083 -2.016231
v 1.785074 0.012083 -1.939160
v 1.785074 0.012083 -2.227798
v 1.785074 0.012083 -1.852612
v 1.785074 0.012083 -2.391727
v 1.785074 0.012083 -2.299554
v 1.785074 0.012083 0.000000
v 1.785074 0.012083 2.122015
v 1.785074 0.012083 2.016231
v 1.785074 0.012083 1.939160
v 1.785074 0.012083 2.227798
v 1.785074 0.012083 1.852612
v 1.785074 0.012083 2.391727
v 1.785074 0.012083 2.299554
v 1.950875 0.012083 -2.122015
v 1.950875 0.012083 -2.016231
v 1.950875 0.012083 -1.939160
v 1.950875 0.012083 -2.227798
v 1.950875 0.012083 -1.852612
v 1.950875 0.012083 -2.391727
v 1.950875 0.012083 -2.299554
v 1.950875 0.012083 0.000000
v 1.950875 0.012083 2.122015
v 1.950875 0.012083 2.016231
v 1.950875 0.012083 1.939160
v 1.950875 0.012083 2.227798
v 1.950875 0.012083 1.852612
v 1.950875 0.012083 2.391727
v 1.950875 0.012083 2.299554
v 1.595601 -0.123514 -2.516289
v 1.785074 -0.123514 -2.516289
v 1.485500 -0.123514 -2.516289
v 1.247819 -0.123514 -2.516289
v -0.000000 -0.123514 -2.516289
v -1.595601 -0.123514 -2.516289
v -1.785074 -0.123514 -2.516289
v -1.485500 -0.123514 -2.516289
v -1.247819 -0.123514 -2.516289
v 1.950875 -0.123514 -2.516289
v 1.785074 0.012083 -2.391727
v 1.595601 0.012083 -2.391727
v 1.485500 0.012083 -2.391727
v 1.247819 0.012083 -2.391727
v -0.000000 0.012083 -2.391727
v -1.785074 0.012083 -2.391727
v -1.595601 0.012083 -2.391727
v -1.485500 0.012083 -2.391727
v -1.247819 0.012083 -2.391727
v 1.950875 0.012083 -2.391727
v 1.785074 0.012083 -2.516289
v 1.595601 0.012083 -2.516289
v 1.485500 0.012083 -2.516289
v 1.247819 0.012083 -2.516289
v -0.000000 0.012083 -2.516289
v -1.785074 0.012083 -2.516289
v -1.595601 0.012083 -2.516289
v -1.485500 0.012083 -2.516289
v -1.247819 0.012083 -2.516289
v 1.950875 0.012083 -2.516289
v -1.785074 -0.123514 -2.122015
v -1.785074 -0.123514 -2.016231
v -1.785074 -0.123514 -2.227798
v -1.785074 -0.123514 -1.939160
v -1.785074 -0.123514 -1.852612
v -1.785074 -0.123514 -2.299554
v -1.595601 -0.123514 -2.391727
v -1.785074 -0.123514 -2.391727
v -1.485500 -0.123514 -2.391727
v -1.247819 -0.123514 -2.391727
v -1.785074 -0.123514 0.000000
v 1.595601 -0.123514 -2.391727
v 1.785074 -0.123514 -2.391727
v 1.485500 -0.123514 -2.391727
v 1.247819 -0.123514 -2.391727
v -1.785074 -0.123514 2.122015
v -1.785074 -0.123514 2.016231
v -1.785074 -0.123514 2.227798
v -1.785074 -0.123514 1.939160
v -1.785074 -0.123514 1.852612
v -1.785074 -0.123514 2.299554
v -1.785074 -0.123514 2.391727
v -1.950875 -0.123514 -2.122015
v -1.950875 -0.123514 -2.016231
v -1.950875 -0.123514 -2.227798
v -1.950875 -0.123514 -1.939160
v -1.950875 -0.123514 -1.852612
v -1.950875 -0.123514 -2.299554
v -1.950875 -0.123514 -2.391727
v -1.950875 -0.123514 0.000000
v -1.950875 -0.123514 2.122015
v -1.950875 -0.123514 2.016231
v -1.950875 -0.123514 2.227798
v -1.950875 -0.123514 1.939160
v -1.950875 -0.123514 1.852612
v -1.950875 -0.123514 2.299554
v -1.950875 -0.123514 2.391727
v -1.785074 0.012083 -2.122015
v -1.785074 0.012083 -2.016231
v -1.785074 0.012083 -1.939160
v -1.785074 0.012083 -2.227798
v -1.785074 0.012083 -1.852612
v -1.785074 0.012083 -2.391727
v -1.785074 0.012083 -2.299554
v -1.785074 0.012083 0.000000
v -1.785074 0.012083 2.122015
v -1.785074 0.012083 2.016231
v -1.785074 0.012083 1.939160
v -1.785074 0.012083 2.227798
v -1.785074 0.012083 1.852612
v -1.785074 0.012083 2.391727
v -1.785074 0.012083 2.299554
v -1.950875 0.012083 -2.122015
v -1.950875 0.012083 -2.016231
v -1.950875 0.012083 -1.939160
v -1.950875 0.012083 -2.227798
v -1.950875 0.012083 -1.852612
v -1.950875 0.012083 -2.391727
v -1.950875 0.012083 -2.299554
v -1.950875 0.012083 0.000000
v -1.950875 0.012083 2.122015
v -1.950875 0.012083 2.016231
v -1.950875 0.012083 1.939160
v -1.950875 0.012083 2.227798
v -1.950875 0.012083 1.852612
v -1.950875 0.012083 2.391727
v -1.950875 0.012083 2.299554
v -1.595601 -0.123514 -2.516289
v -1.785074 -0.123514 -2.516289
v -1.485500 -0.123514 -2.516289
v -1.247819 -0.123514 -2.516289
v 1.595601 -0.123514 -2.516289
v 1.785074 -0.123514 -2.516289
v 1.485500 -0.123514 -2.516289
v 1.247819 -0.123514 -2.516289
v -1.950875 -0.123514 -2.516289
v -1.785074 0.012083 -2.391727
v -1.595601 0.012083 -2.391727
v -1.485500 0.012083 -2.391727
v -1.247819 0.012083 -2.391727
v 1.785074 0.012083 -2.391727
v 1.595601 0.012083 -2.391727
v 1.485500 0.012083 -2.391727
v 1.247819 0.012083 -2.391727
v -1.950875 0.012083 -2.391727
v -1.785074 0.012083 -2.516289
v -1.595601 0.012083 -2.516289
v -1.485500 0.012083 -2.516289
v -1.247819 0.012083 -2.516289
v 1.785074 0.012083 -2.516289
v 1.595601 0.012083 -2.516289
v 1.485500 0.012083 -2.516289
v 1.247819 0.012083 -2.516289
v -1.950875 0.012083 -2.516289
v 1.785074 -0.123514 2.122015
v 1.785074 -0.123514 2.016231
v 1.785074 -0.123514 2.227798
v 1.785074 -0.123514 1.939160
v 1.785074 -0.123514 1.852612
v 1.785074 -0.123514 2.299554
v 1.595601 -0.123514 2.391727
v 1.785074 -0.123514 2.391727
v 1.485500 -0.123514 2.391727
v 1.247819 -0.123514 2.391727
v -0.000000 -0.123514 2.391727
v -1.595601 -0.123514 2.391727
v -1.785074 -0.123514 2.391727
v -1.485500 -0.123514 2.391727
v -1.247819 -0.123514 2.391727
v 1.785074 -0.123514 -2.122015
v 1.785074 -0.123514 -2.016231
v 1.785074 -0.123514 -2.227798
v 1.785074 -0.123514 -1.939160
v 1.785074 -0.123514 -1.852612
v 1.785074 -0.123514 -2.299554
v 1.785074 -0.123514 -2.391727
v 1.950875 -0.123514 2.122015
v 1.950875 -0.123514 2.016231
v 1.950875 -0.123514 2.227798
v 1.950875 -0.123514 1.939160
v 1.950875 -0.123514 1.852612
v 1.950875 -0.123514 2.299554
v 1.950875 -0.123514 2.391727
v 1.950875 -0.123514 -2.122015
v 1.950875 -0.123514 -2.016231
v 1.950875 -0.123514 -2.227798
v 1.950875 -0.123514 -1.939160
v 1.950875 -0.123514 -1.852612
v 1.950875 -0.123514 -2.299554
v 1.950875 -0.123514 -2.391727
v 1.785074 0.012083 2.122015
v 1.785074 0.012083 2.016231
v 1.785074 0.012083 1.939160
v 1.785074 0.012083 2.227798
v 1.785074 0.012083 1.852612
v 1.785074 0.012083 2.391727
v 1.785074 0.012083 2.299554
v 1.785074 0.012083 -2.122015
v 1.785074 0.012083 -2.016231
v 1.785074 0.012083 -1.939160
v 1.785074 0.012083 -2.227798
v 1.785074 0.012083 -1.852612
v 1.785074 0.012083 -2.391727
v 1.785074 0.012083 -2.299554
v 1.950875 0.012083 2.122015
v 1.950875 0.012083 2.016231
v 1.950875 0.012083 1.939160
v 1.950875 0.012083 2.227798
v 1.950875 0.012083 1.852612
v 1.950875 0.012083 2.391727
v 1.950875 0.012083 2.299554
v 1.950875 0.012083 -2.122015
v 1.950875 0.012083 -2.016231
v 1.950875 0.012083 -1.939160
v 1.950875 0.012083 -2.227798
v 1.950875 0.012083 -1.852612
v 1.950875 0.012083 -2.391727
v 1.950875 0.012083 -2.299554
v 1.595601 -0.123514 2.516289
v 1.785074 -0.123514 2.516289
v 1.485500 -0.123514 2.516289
v 1.247819 -0.123514 2.516289
v -0.000000 -0.123514 2.516289
v -1.595601 -0.123514 2.516289
v -1.785074 -0.123514 2.516289
v -1.485500 -0.123514 2.516289
v -1.247819 -0.123514 2.516289
v 1.950875 -0.123514 2.516289
v 1.785074 0.012083 2.391727
v 1.595601 0.012083 2.391727
v 1.485500 0.012083 2.391727
v 1.247819 0.012083 2.391727
v -0.000000 0.012083 2.391727
v -1.785074 0.012083 2.391727
v -1.595601 0.012083 2.391727
v -1.485500 0.012083 2.391727
v -1.247819 0.012083 2.391727
v 1.950875 0.012083 2.391727
v 1.785074 0.012083 2.516289
v 1.595601 0.012083 2.516289
v 1.485500 0.012083 2.516289
v 1.247819 0.012083 2.516289
v -0.000000 0.012083 2.516289
v -1.785074 0.012083 2.516289
v -1.595601 0.012083 2.516289
v -1.485500 0.012083 2.516289
v -1.247819 0.012083 2.516289
v 1.950875 0.012083 2.516289
v -1.785074 -0.123514 2.122015
v -1.785074 -0.123514 2.016231
v -1.785074 -0.123514 2.227798
v -1.785074 -0.123514 1.939160
v -1.785074 -0.123514 1.852612
v -1.785074 -0.123514 2.299554
v -1.595601 -0.123514 2.391727
v -1.785074 -0.123514 2.391727
v -1.485500 -0.123514 2.391727
v -1.247819 -0.123514 2.391727
v 1.595601 -0.123514 2.391727
v 1.785074 -0.123514 2.391727
v 1.485500 -0.123514 2.391727
v 1.247819 -0.123514 2.391727
v -1.785074 -0.123514 -2.122015
v -1.785074 -0.123514 -2.016231
v -1.785074 -0.123514 -2.227798
v -1.785074 -0.123514 -1.939160
v -1.785074 -0.123514 -1.852612
v -1.785074 -0.123514 -2.299554
v -1.785074 -0.123514 -2.391727
v -1.950875 -0.123514 2.122015
v -1.950875 -0.123514 2.016231
v -1.950875 -0.123514 2.227798
v -1.950875 -0.123514 1.939160
v -1.950875 -0.123514 1.852612
v -1.950875 -0.123514 2.299554
v -1.950875 -0.123514 2.391727
v -1.950875 -0.123514 -2.122015
v -1.950875 -0.123514 -2.016231
v -1.950875 -0.123514 -2.227798
v -1.950875 -0.123514 -1.939160
v -1.950875 -0.123514 -1.852612
v -1.950875 -0.123514 -2.299554
v -1.950875 -0.123514 -2.391727
v -1.785074 0.012083 2.122015
v -1.785074 0.012083 2.016231
v -1.785074 0.012083 1.939160
v -1.785074 0.012083 2.227798
v -1.785074 0.012083 1.852612
v -1.785074 0.012083 2.391727
v -1.785074 0.012083 2.299554
v -1.785074 0.012083 -2.122015
v -1.785074 0.012083 -2.016231
v -1.785074 0.012083 -1.939160
v -1.785074 0.012083 -2.227798
v -1.785074 0.012083 -1.852612
v -1.785074 0.012083 -2.391727
v -1.785074 0.012083 -2.299554
v -1.950875 0.012083 2.122015
v -1.950875 0.012083 2.016231
v -1.950875 0.012083 1.939160
v -1.950875 0.012083 2.227798
v -1.950875 0.012083 1.852612
v -1.950875 0.012083 2.391727
v -1.950875 0.012083 2.299554
v -1.950875 0.012083 -2.122015
v -1.950875 0.012083 -2.016231
v -1.950875 0.012083 -1.939160
v -1.950875 0.012083 -2.227798
v -1.950875 0.012083 -1.852612
v -1.950875 0.012083 -2.391727
v -1.950875 0.012083 -2.299554
v -1.595601 -0.123514 2.516289
v -1.785074 -0.123514 2.516289
v -1.485500 -0.123514 2.516289
v -1.247819 -0.123514 2.516289
v 1.595601 -0.123514 2.516289
v 1.785074 -0.123514 2.516289
v 1.485500 -0.123514 2.516289
v 1.247819 -0.123514 2.516289
v -1.950875 -0.123514 2.516289
v -1.785074 0.012083 2.391727
v -1.595601 0.012083 2.391727
v -1.485500 0.012083 2.391727
v -1.247819 0.012083 2.391727
v 1.785074 0.012083 2.391727
v 1.595601 0.012083 2.391727
v 1.485500 0.012083 2.391727
v 1.247819 0.012083 2.391727
v -1.950875 0.012083 2.391727
v -1.785074 0.012083 2.516289
v -1.595601 0.012083 2.516289
v -1.485500 0.012083 2.516289
v -1.247819 0.012083 2.516289
v 1.785074 0.012083 2.516289
v 1.595601 0.012083 2.516289
v 1.485500 0.012083 2.516289
v 1.247819 0.012083 2.516289
v -1.950875 0.012083 2.516289
vn 1.0000 -0.0000 -0.0000
vn -1.0000 -0.0000 -0.0000
vn -0.0000 1.0000 -0.0000
vn -0.0000 -0.0000 1.0000
vn -0.0000 -0.0000 -1.0000
vt 0.000000 0.000000
vt 0.363636 0.750000
vt 0.545455 0.750000
vt 0.636364 0.750000
vt 0.727273 0.750000
vt 0.454545 0.750000
s 0
f 35/1/1 36/1/1 66/1/1 64/1/1
f 4/2/2 5/1/2 43/1/2 41/2/2
f 34/1/1 32/1/1 62/1/1 65/1/1
f 17/3/2 19/4/2 50/4/2 47/3/2
f 19/4/2 22/5/2 53/5/2 50/4/2
f 33/1/1 35/1/1 64/1/1 63/1/1
f 32/1/1 33/1/1 63/1/1 62/1/1
f 20/2/2 18/6/2 48/6/2 49/2/2
f 31/1/1 28/1/1 58/1/1 61/1/1
f 26/1/1 29/1/1 60/1/1 57/1/1
f 3/4/2 1/3/2 39/3/2 42/4/2
f 29/1/1 30/1/1 59/1/1 60/1/1
f 18/6/2 17/3/2 47/3/2 48/6/2
f 53/1/3 52/1/3 67/1/3 68/1/3
f 45/5/3 42/4/3 57/4/3 60/5/3
f 47/3/3 50/4/3 65/4/3 62/3/3
f 41/2/3 43/1/3 58/1/3 56/2/3
f 40/6/3 41/2/3 56/2/3 55/6/3
f 44/1/3 45/1/3 60/1/3 59/1/3
f 48/6/3 47/3/3 62/3/3 63/6/3
f 46/1/3 51/1/3 66/1/3 61/1/3
f 42/4/3 39/3/3 54/3/3 57/4/3
f 43/1/3 46/1/3 61/1/3 58/1/3
f 50/4/3 53/5/3 68/5/3 65/4/3
f 51/1/3 49/2/3 64/2/3 66/1/3
f 49/2/3 48/6/3 63/6/3 64/2/3
f 39/3/3 40/6/3 55/6/3 54/3/3
f 38/1/1 37/1/1 68/1/1 67/1/1
f 8/1/2 6/1/2 45/1/2 44/1/2
f 37/1/1 34/1/1 65/1/1 68/1/1
f 1/3/2 2/6/2 40/6/2 39/3/2
f 36/1/1 31/1/1 61/1/1 66/1/1
f 25/1/1 24/1/1 54/1/1 55/1/1
f 21/1/2 20/2/2 49/2/2 51/1/2
f 27/1/1 25/1/1 55/1/1 56/1/1
f 24/1/1 26/1/1 57/1/1 54/1/1
f 12/1/2 21/1/2 51/1/2 46/1/2
f 2/6/2 4/2/2 41/2/2 40/6/2
f 5/1/2 12/1/2 46/1/2 43/1/2
f 28/1/1 27/1/1 56/1/1 58/1/1
f 22/1/2 23/1/2 52/1/2 53/1/2
f 6/5/2 3/4/2 42/4/2 45/5/2
f 11/1/4 10/1/4 82/1/4 83/1/4
f 72/1/5 73/1/5 93/1/5 92/1/5
f 30/1/1 78/1/1 98/1/1 88/1/1
f 71/1/5 72/1/5 92/1/5 91/1/5
f 15/1/4 16/1/4 87/1/4 86/1/4
f 69/1/5 71/1/5 91/1/5 90/1/5
f 78/1/5 70/1/5 89/1/5 98/1/5
f 81/1/3 80/1/3 90/1/3 91/1/3
f 83/1/3 82/1/3 92/1/3 93/1/3
f 85/1/3 86/1/3 96/1/3 95/1/3
f 87/1/3 83/1/3 93/1/3 97/1/3
f 82/1/3 81/1/3 91/1/3 92/1/3
f 80/1/3 79/1/3 89/1/3 90/1/3
f 79/1/3 88/1/3 98/1/3 89/1/3
f 86/1/3 87/1/3 97/1/3 96/1/3
f 84/1/3 85/1/3 95/1/3 94/1/3
f 74/1/5 75/1/5 94/1/5 95/1/5
f 7/1/4 8/1/4 79/1/4 80/1/4
f 9/1/4 7/1/4 80/1/4 81/1/4
f 76/1/5 74/1/5 95/1/5 96/1/5
f 77/1/5 76/1/5 96/1/5 97/1/5
f 14/1/4 13/1/4 85/1/4 84/1/4
f 10/1/4 9/1/4 81/1/4 82/1/4
f 13/1/4 15/1/4 86/1/4 85/1/4
f 73/1/5 77/1/5 97/1/5 93/1/5
f 16/1/4 11/1/4 83/1/4 87/1/4
f 70/1/5 69/1/5 90/1/5 89/1/5
f 132/1/2 161/1/2 163/1/2 133/1/2
f 102/2/1 138/2/1 140/1/1 103/1/1
f 131/1/2 162/1/2 159/1/2 129/1/2
f 114/3/1 144/3/1 147/4/1 116/4/1
f 116/4/1 147/4/1 150/5/1 119/5/1
f 130/1/2 160/1/2 161/1/2 132/1/2
f 129/1/2 159/1/2 160/1/2 130/1/2
f 117/2/1 146/2/1 145/6/1 115/6/1
f 128/1/2 158/1/2 155/1/2 125/1/2
f 123/1/2 154/1/2 157/1/2 126/1/2
f 101/4/1 139/4/1 136/3/1 99/3/1
f 126/1/2 157/1/2 156/1/2 127/1/2
f 115/6/1 145/6/1 144/3/1 114/3/1
f 150/1/3 165/1/3 164/1/3 149/1/3
f 142/5/3 157/5/3 154/4/3 139/4/3
f 144/3/3 159/3/3 162/4/3 147/4/3
f 138/2/3 153/2/3 155/1/3 140/1/3
f 137/6/3 152/6/3 153/2/3 138/2/3
f 141/1/3 156/1/3 157/1/3 142/1/3
f 145/6/3 160/6/3 159/3/3 144/3/3
f 143/1/3 158/1/3 163/1/3 148/1/3
f 139/4/3 154/4/3 151/3/3 136/3/3
f 140/1/3 155/1/3 158/1/3 143/1/3
f 147/4/3 162/4/3 165/5/3 150/5/3
f 148/1/3 163/1/3 161/2/3 146/2/3
f 146/2/3 161/2/3 160/6/3 145/6/3
f 136/3/3 151/3/3 152/6/3 137/6/3
f 135/1/2 164/1/2 165/1/2 134/1/2
f 106/1/1 141/1/1 142/1/1 104/1/1
f 134/1/2 165/1/2 162/1/2 131/1/2
f 99/3/1 136/3/1 137/6/1 100/6/1
f 133/1/2 163/1/2 158/1/2 128/1/2
f 122/1/2 152/1/2 151/1/2 121/1/2
f 118/1/1 148/1/1 146/2/1 117/2/1
f 124/1/2 153/1/2 152/1/2 122/1/2
f 121/1/2 151/1/2 154/1/2 123/1/2
f 109/1/1 143/1/1 148/1/1 118/1/1
f 100/6/1 137/6/1 138/2/1 102/2/1
f 103/1/1 140/1/1 143/1/1 109/1/1
f 125/1/2 155/1/2 153/1/2 124/1/2
f 119/1/1 150/1/1 149/1/1 120/1/1
f 104/5/1 142/5/1 139/4/1 101/4/1
f 11/1/4 83/1/4 178/1/4 108/1/4
f 169/1/5 187/1/5 93/1/5 73/1/5
f 127/1/2 183/1/2 192/1/2 174/1/2
f 168/1/5 186/1/5 187/1/5 169/1/5
f 112/1/4 181/1/4 182/1/4 113/1/4
f 166/1/5 185/1/5 186/1/5 168/1/5
f 174/1/5 192/1/5 184/1/5 167/1/5
f 177/1/3 186/1/3 185/1/3 176/1/3
f 83/1/3 93/1/3 187/1/3 178/1/3
f 180/1/3 189/1/3 190/1/3 181/1/3
f 182/1/3 191/1/3 93/1/3 83/1/3
f 178/1/3 187/1/3 186/1/3 177/1/3
f 176/1/3 185/1/3 184/1/3 175/1/3
f 175/1/3 184/1/3 192/1/3 183/1/3
f 181/1/3 190/1/3 191/1/3 182/1/3
f 179/1/3 188/1/3 189/1/3 180/1/3
f 170/1/5 189/1/5 188/1/5 171/1/5
f 105/1/4 176/1/4 175/1/4 106/1/4
f 107/1/4 177/1/4 176/1/4 105/1/4
f 172/1/5 190/1/5 189/1/5 170/1/5
f 173/1/5 191/1/5 190/1/5 172/1/5
f 111/1/4 179/1/4 180/1/4 110/1/4
f 108/1/4 178/1/4 177/1/4 107/1/4
f 110/1/4 180/1/4 181/1/4 112/1/4
f 73/1/5 93/1/5 191/1/5 173/1/5
f 113/1/4 182/1/4 83/1/4 11/1/4
f 167/1/5 184/1/5 185/1/5 166/1/5
f 225/1/1 252/1/1 254/1/1 226/1/1
f 196/2/2 231/2/2 233/1/2 197/1/2
f 224/1/1 253/1/1 250/1/1 222/1/1
f 208/3/2 236/3/2 239/4/2 210/4/2
f 210/4/2 239/4/2 242/5/2 213/5/2
f 223/1/1 251/1/1 252/1/1 225/1/1
f 222/1/1 250/1/1 251/1/1 223/1/1
f 211/2/2 238/2/2 237/6/2 209/6/2
f 31/1/1 61/1/1 247/1/1 219/1/1
f 217/1/1 246/1/1 249/1/1 220/1/1
f 195/4/2 232/4/2 229/3/2 193/3/2
f 220/1/1 249/1/1 248/1/1 221/1/1
f 209/6/2 237/6/2 236/3/2 208/3/2
f 242/1/3 256/1/3 255/1/3 241/1/3
f 235/5/3 249/5/3 246/4/3 232/4/3
f 236/3/3 250/3/3 253/4/3 239/4/3
f 231/2/3 245/2/3 247/1/3 233/1/3
f 230/6/3 244/6/3 245/2/3 231/2/3
f 234/1/3 248/1/3 249/1/3 235/1/3
f 237/6/3 251/6/3 250/3/3 236/3/3
f 46/1/3 61/1/3 254/1/3 240/1/3
f 232/4/3 246/4/3 243/3/3 229/3/3
f 233/1/3 247/1/3 61/1/3 46/1/3
f 239/4/3 253/4/3 256/5/3 242/5/3
f 240/1/3 254/1/3 252/2/3 238/2/3
f 238/2/3 252/2/3 251/6/3 237/6/3
f 229/3/3 243/3/3 244/6/3 230/6/3
f 228/1/1 255/1/1 256/1/1 227/1/1
f 200/1/2 234/1/2 235/1/2 198/1/2
f 227/1/1 256/1/1 253/1/1 224/1/1
f 193/3/2 229/3/2 230/6/2 194/6/2
f 226/1/1 254/1/1 61/1/1 31/1/1
f 216/1/1 244/1/1 243/1/1 215/1/1
f 212/1/2 240/1/2 238/2/2 211/2/2
f 218/1/1 245/1/1 244/1/1 216/1/1
f 215/1/1 243/1/1 246/1/1 217/1/1
f 12/1/2 46/1/2 240/1/2 212/1/2
f 194/6/2 230/6/2 231/2/2 196/2/2
f 197/1/2 233/1/2 46/1/2 12/1/2
f 219/1/1 247/1/1 245/1/1 218/1/1
f 213/1/2 242/1/2 241/1/2 214/1/2
f 198/5/2 235/5/2 232/4/2 195/4/2
f 203/1/5 271/1/5 270/1/5 202/1/5
f 260/1/4 280/1/4 281/1/4 261/1/4
f 221/1/1 276/1/1 286/1/1 266/1/1
f 259/1/4 279/1/4 280/1/4 260/1/4
f 206/1/5 274/1/5 275/1/5 207/1/5
f 257/1/4 278/1/4 279/1/4 259/1/4
f 266/1/4 286/1/4 277/1/4 258/1/4
f 269/1/3 279/1/3 278/1/3 268/1/3
f 271/1/3 281/1/3 280/1/3 270/1/3
f 273/1/3 283/1/3 284/1/3 274/1/3
f 275/1/3 285/1/3 281/1/3 271/1/3
f 270/1/3 280/1/3 279/1/3 269/1/3
f 268/1/3 278/1/3 277/1/3 267/1/3
f 267/1/3 277/1/3 286/1/3 276/1/3
f 274/1/3 284/1/3 285/1/3 275/1/3
f 272/1/3 282/1/3 283/1/3 273/1/3
f 262/1/4 283/1/4 282/1/4 263/1/4
f 199/1/5 268/1/5 267/1/5 200/1/5
f 201/1/5 269/1/5 268/1/5 199/1/5
f 264/1/4 284/1/4 283/1/4 262/1/4
f 265/1/4 285/1/4 284/1/4 264/1/4
f 205/1/5 272/1/5 273/1/5 204/1/5
f 202/1/5 270/1/5 269/1/5 201/1/5
f 204/1/5 273/1/5 274/1/5 206/1/5
f 261/1/4 281/1/4 285/1/4 265/1/4
f 207/1/5 275/1/5 271/1/5 203/1/5
f 258/1/4 277/1/4 278/1/4 257/1/4
f 318/1/2 319/1/2 347/1/2 345/1/2
f 290/2/1 291/1/1 326/1/1 324/2/1
f 317/1/2 315/1/2 343/1/2 346/1/2
f 301/3/1 303/4/1 332/4/1 329/3/1
f 303/4/1 306/5/1 335/5/1 332/4/1
f 316/1/2 318/1/2 345/1/2 344/1/2
f 315/1/2 316/1/2 344/1/2 343/1/2
f 304/2/1 302/6/1 330/6/1 331/2/1
f 128/1/2 312/1/2 340/1/2 158/1/2
f 310/1/2 313/1/2 342/1/2 339/1/2
f 289/4/1 287/3/1 322/3/1 325/4/1
f 313/1/2 314/1/2 341/1/2 342/1/2
f 302/6/1 301/3/1 329/3/1 330/6/1
f 335/1/3 334/1/3 348/1/3 349/1/3
f 328/5/3 325/4/3 339/4/3 342/5/3
f 329/3/3 332/4/3 346/4/3 343/3/3
f 324/2/3 326/1/3 340/1/3 338/2/3
f 323/6/3 324/2/3 338/2/3 337/6/3
f 327/1/3 328/1/3 342/1/3 341/1/3
f 330/6/3 329/3/3 343/3/3 344/6/3
f 143/1/3 333/1/3 347/1/3 158/1/3
f 325/4/3 322/3/3 336/3/3 339/4/3
f 326/1/3 143/1/3 158/1/3 340/1/3
f 332/4/3 335/5/3 349/5/3 346/4/3
f 333/1/3 331/2/3 345/2/3 347/1/3
f 331/2/3 330/6/3 344/6/3 345/2/3
f 322/3/3 323/6/3 337/6/3 336/3/3
f 321/1/2 320/1/2 349/1/2 348/1/2
f 294/1/1 292/1/1 328/1/1 327/1/1
f 320/1/2 317/1/2 346/1/2 349/1/2
f 287/3/1 288/6/1 323/6/1 322/3/1
f 319/1/2 128/1/2 158/1/2 347/1/2
f 309/1/2 308/1/2 336/1/2 337/1/2
f 305/1/1 304/2/1 331/2/1 333/1/1
f 311/1/2 309/1/2 337/1/2 338/1/2
f 308/1/2 310/1/2 339/1/2 336/1/2
f 109/1/1 305/1/1 333/1/1 143/1/1
f 288/6/1 290/2/1 324/2/1 323/6/1
f 291/1/1 109/1/1 143/1/1 326/1/1
f 312/1/2 311/1/2 338/1/2 340/1/2
f 306/1/1 307/1/1 334/1/1 335/1/1
f 292/5/1 289/4/1 325/4/1 328/5/1
f 203/1/5 296/1/5 362/1/5 271/1/5
f 353/1/4 261/1/4 281/1/4 371/1/4
f 314/1/2 358/1/2 376/1/2 367/1/2
f 352/1/4 353/1/4 371/1/4 370/1/4
f 299/1/5 300/1/5 366/1/5 365/1/5
f 350/1/4 352/1/4 370/1/4 369/1/4
f 358/1/4 351/1/4 368/1/4 376/1/4
f 361/1/3 360/1/3 369/1/3 370/1/3
f 271/1/3 362/1/3 371/1/3 281/1/3
f 364/1/3 365/1/3 374/1/3 373/1/3
f 366/1/3 271/1/3 281/1/3 375/1/3
f 362/1/3 361/1/3 370/1/3 371/1/3
f 360/1/3 359/1/3 368/1/3 369/1/3
f 359/1/3 367/1/3 376/1/3 368/1/3
f 365/1/3 366/1/3 375/1/3 374/1/3
f 363/1/3 364/1/3 373/1/3 372/1/3
f 354/1/4 355/1/4 372/1/4 373/1/4
f 293/1/5 294/1/5 359/1/5 360/1/5
f 295/1/5 293/1/5 360/1/5 361/1/5
f 356/1/4 354/1/4 373/1/4 374/1/4
f 357/1/4 356/1/4 374/1/4 375/1/4
f 298/1/5 297/1/5 364/1/5 363/1/5
f 296/1/5 295/1/5 361/1/5 362/1/5
f 297/1/5 299/1/5 365/1/5 364/1/5
f 261/1/4 357/1/4 375/1/4 281/1/4
f 300/1/5 203/1/5 271/1/5 366/1/5
f 351/1/4 350/1/4 369/1/4 368/1/4
