# Blender 5.0.1
# www.blender.org
mtllib tall_walls.mtl
o Walls
v -1.785074 0.012083 -2.391727
v 1.785074 0.012083 -2.391727
v 1.785074 0.012083 2.391727
v 1.785074 0.012083 -2.391727
v -1.785074 0.012083 2.391727
v -1.785074 0.012083 -2.391727
v -1.785074 0.012083 2.391727
v 1.785074 0.012083 2.391727
v -1.785074 10.894745 -2.391727
v 1.785074 10.894745 -2.391727
v 1.785074 10.894745 2.391727
v 1.785074 10.894745 -2.391727
v -1.785074 10.894745 2.391727
v -1.785074 10.894745 -2.391727
v -1.785074 10.894745 2.391727
v 1.785074 10.894745 2.391727
vn -1.0000 -0.0000 -0.0000
vn 1.0000 -0.0000 -0.0000
vn -0.0000 -0.0000 -1.0000
vn -0.0000 -0.0000 1.0000
vt 0.250000 0.731573
vt 0.000000 0.731573
vt 0.000000 -0.000000
vt 0.250000 -0.000000
vt 0.500000 0.000000
vt 0.500000 0.731573
vt 0.750000 0.000000
vt 0.750000 0.546012
vt 0.500000 0.546012
vt 1.000000 0.000000
vt 1.000000 0.546012
s 1
f 3/1/1 11/2/1 12/3/1 4/4/1
f 5/5/2 6/6/2 14/1/2 13/4/2
f 8/7/3 7/8/3 15/9/3 16/5/3
f 1/10/4 2/11/4 10/8/4 9/7/4
