# Blender 5.0.1
# www.blender.org
mtllib bowl_sand_fixed.mtl
o Sphere
v 0.000000 0.000000 -0.749396
v 0.000000 -0.155904 -0.783783
v 0.000000 -0.443978 -0.664459
v 0.000000 -0.799138 0.000000
v 0.146200 0.000000 -0.734996
v 0.152909 -0.155904 -0.768723
v 0.144037 -0.305817 -0.724121
v 0.129630 -0.443978 -0.651692
v 0.110241 -0.565076 -0.554218
v 0.086616 -0.664459 -0.435447
v 0.059662 -0.738308 -0.299941
v 0.030415 -0.783783 -0.152909
v 0.286781 0.000000 -0.692351
v 0.299941 -0.155904 -0.724121
v 0.282538 -0.305817 -0.682107
v 0.254278 -0.443978 -0.613880
v 0.216245 -0.565076 -0.522062
v 0.169903 -0.664459 -0.410182
v 0.117031 -0.738308 -0.282538
v 0.059662 -0.783783 -0.144037
v 0.416342 0.000000 -0.623100
v 0.435447 -0.155904 -0.651692
v 0.410182 -0.305817 -0.613880
v 0.369154 -0.443978 -0.552478
v 0.313940 -0.565076 -0.469844
v 0.246661 -0.664459 -0.369154
v 0.169903 -0.738308 -0.254278
v 0.086616 -0.783783 -0.129630
v 0.529903 0.000000 -0.529903
v 0.554218 -0.155904 -0.554218
v 0.522062 -0.305817 -0.522062
v 0.469844 -0.443978 -0.469844
v 0.399569 -0.565076 -0.399569
v 0.313939 -0.664459 -0.313939
v 0.216245 -0.738308 -0.216245
v 0.110241 -0.783783 -0.110241
v 0.623100 0.000000 -0.416342
v 0.651692 -0.155904 -0.435447
v 0.613880 -0.305817 -0.410182
v 0.552478 -0.443978 -0.369154
v 0.469844 -0.565076 -0.313940
v 0.369154 -0.664459 -0.246661
v 0.254278 -0.738308 -0.169903
v 0.129630 -0.783783 -0.086616
v 0.692351 0.000000 -0.286781
v 0.724121 -0.155904 -0.299941
v 0.682107 -0.305817 -0.282538
v 0.613880 -0.443978 -0.254277
v 0.522062 -0.565076 -0.216245
v 0.410182 -0.664459 -0.169903
v 0.282538 -0.738308 -0.117031
v 0.144037 -0.783783 -0.059662
v 0.734996 0.000000 -0.146200
v 0.768723 -0.155904 -0.152908
v 0.724121 -0.305817 -0.144037
v 0.651692 -0.443978 -0.129629
v 0.554218 -0.565076 -0.110241
v 0.435447 -0.664459 -0.086616
v 0.299941 -0.738308 -0.059662
v 0.152908 -0.783783 -0.030415
v 0.749395 0.000000 0.000000
v 0.783783 -0.155904 0.000000
v 0.738308 -0.305817 -0.000000
v 0.664459 -0.443978 0.000000
v 0.565076 -0.565076 -0.000000
v 0.443977 -0.664459 0.000000
v 0.305817 -0.738308 0.000000
v 0.155904 -0.783783 0.000000
v 0.734996 0.000000 0.146200
v 0.768723 -0.155904 0.152909
v 0.724121 -0.305817 0.144037
v 0.651692 -0.443978 0.129630
v 0.554218 -0.565076 0.110241
v 0.435447 -0.664459 0.086616
v 0.299941 -0.738308 0.059662
v 0.152908 -0.783783 0.030415
v 0.692351 0.000000 0.286781
v 0.724121 -0.155904 0.299941
v 0.682107 -0.305817 0.282538
v 0.613880 -0.443978 0.254278
v 0.522062 -0.565076 0.216245
v 0.410182 -0.664459 0.169903
v 0.282538 -0.738308 0.117031
v 0.144037 -0.783783 0.059662
v 0.623099 0.000000 0.416342
v 0.651692 -0.155904 0.435447
v 0.613880 -0.305817 0.410182
v 0.552478 -0.443978 0.369154
v 0.469844 -0.565076 0.313939
v 0.369154 -0.664459 0.246661
v 0.254278 -0.738308 0.169903
v 0.129630 -0.783783 0.086616
v 0.529902 0.000000 0.529903
v 0.554218 -0.155904 0.554218
v 0.522062 -0.305817 0.522062
v 0.469843 -0.443978 0.469844
v 0.399569 -0.565076 0.399569
v 0.313939 -0.664459 0.313939
v 0.216245 -0.738308 0.216245
v 0.110241 -0.783783 0.110241
v 0.416342 0.000000 0.623100
v 0.435446 -0.155904 0.651692
v 0.410182 -0.305817 0.613880
v 0.369154 -0.443978 0.552478
v 0.313939 -0.565076 0.469844
v 0.246661 -0.664459 0.369154
v 0.169903 -0.738308 0.254278
v 0.086616 -0.783783 0.129630
v 0.286781 0.000000 0.692351
v 0.299941 -0.155904 0.724121
v 0.282538 -0.305817 0.682107
v 0.254277 -0.443978 0.613880
v 0.216245 -0.565076 0.522062
v 0.169903 -0.664459 0.410182
v 0.117031 -0.738308 0.282538
v 0.059662 -0.783783 0.144037
v 0.146200 0.000000 0.734996
v 0.152908 -0.155904 0.768723
v 0.144037 -0.305817 0.724121
v 0.129629 -0.443978 0.651692
v 0.110241 -0.565076 0.554218
v 0.086616 -0.664459 0.435446
v 0.059662 -0.738308 0.299941
v 0.030415 -0.783783 0.152908
v -0.000000 0.000000 0.749395
v -0.000000 -0.155904 0.783783
v 0.000000 -0.305817 0.738307
v -0.000000 -0.443978 0.664459
v -0.000000 -0.565076 0.565076
v -0.000000 -0.664459 0.443977
v -0.000000 -0.738308 0.305817
v -0.000000 -0.783783 0.155904
v -0.146200 0.000000 0.734996
v -0.152909 -0.155904 0.768723
v -0.144037 -0.305817 0.724121
v -0.129630 -0.443978 0.651692
v -0.110241 -0.565076 0.554218
v -0.086616 -0.664459 0.435446
v -0.059662 -0.738308 0.299941
v -0.030415 -0.783783 0.152908
v -0.286781 0.000000 0.692351
v -0.299941 -0.155904 0.724121
v -0.282538 -0.305817 0.682107
v -0.254278 -0.443978 0.613880
v -0.216245 -0.565076 0.522062
v -0.169903 -0.664459 0.410181
v -0.117031 -0.738308 0.282538
v -0.059662 -0.783783 0.144037
v -0.416342 0.000000 0.623099
v -0.435447 -0.155904 0.651692
v -0.410182 -0.305817 0.613880
v -0.369154 -0.443978 0.552477
v -0.313939 -0.565076 0.469844
v -0.246661 -0.664459 0.369154
v -0.169903 -0.738308 0.254277
v -0.086616 -0.783783 0.129629
v -0.529903 0.000000 0.529902
v -0.554218 -0.155904 0.554218
v -0.522062 -0.305817 0.522062
v -0.469844 -0.443978 0.469843
v -0.399569 -0.565076 0.399569
v -0.313939 -0.664459 0.313939
v -0.216245 -0.738308 0.216245
v -0.110241 -0.783783 0.110241
v -0.623099 0.000000 0.416341
v -0.651692 -0.155904 0.435446
v -0.613880 -0.305817 0.410182
v -0.552478 -0.443978 0.369154
v -0.469844 -0.565076 0.313939
v -0.369154 -0.664459 0.246660
v -0.254277 -0.738308 0.169903
v -0.129629 -0.783783 0.086616
v -0.692351 0.000000 0.286781
v -0.724121 -0.155904 0.299941
v -0.682107 -0.305817 0.282538
v -0.613880 -0.443978 0.254277
v -0.522062 -0.565076 0.216245
v -0.410181 -0.664459 0.169903
v -0.282538 -0.738308 0.117031
v -0.144037 -0.783783 0.059662
v -0.734996 0.000000 0.146199
v -0.768723 -0.155904 0.152908
v -0.724121 -0.305817 0.144037
v -0.651692 -0.443978 0.129629
v -0.554218 -0.565076 0.110241
v -0.435446 -0.664459 0.086616
v -0.299941 -0.738308 0.059662
v -0.152908 -0.783783 0.030415
v -0.749395 0.000000 -0.000000
v -0.783783 -0.155904 -0.000000
v -0.738307 -0.305817 -0.000000
v -0.664459 -0.443978 -0.000000
v -0.565076 -0.565076 -0.000000
v -0.443977 -0.664459 -0.000000
v -0.305817 -0.738308 -0.000000
v -0.155904 -0.783783 -0.000000
v -0.734995 0.000000 -0.146200
v -0.768723 -0.155904 -0.152909
v -0.724121 -0.305817 -0.144037
v -0.651691 -0.443978 -0.129630
v -0.554218 -0.565076 -0.110241
v -0.435446 -0.664459 -0.086616
v -0.299941 -0.738308 -0.059662
v -0.152908 -0.783783 -0.030415
v -0.692351 0.000000 -0.286781
v -0.724121 -0.155904 -0.299941
v -0.682107 -0.305817 -0.282538
v -0.613880 -0.443978 -0.254278
v -0.522062 -0.565076 -0.216245
v -0.410181 -0.664459 -0.169903
v -0.282538 -0.738308 -0.117031
v -0.144037 -0.783783 -0.059662
v -0.623099 0.000000 -0.416342
v -0.651691 -0.155904 -0.435447
v -0.613880 -0.305817 -0.410182
v -0.552477 -0.443978 -0.369154
v -0.469844 -0.565076 -0.313939
v -0.369153 -0.664459 -0.246661
v -0.254277 -0.738308 -0.169903
v -0.129629 -0.783783 -0.086616
v -0.529902 0.000000 -0.529902
v -0.554218 -0.155904 -0.554218
v -0.522062 -0.305817 -0.522062
v -0.469843 -0.443978 -0.469843
v -0.399569 -0.565076 -0.399569
v -0.313939 -0.664459 -0.313939
v -0.216245 -0.738308 -0.216245
v -0.110241 -0.783783 -0.110241
v -0.416341 0.000000 -0.623099
v -0.435446 -0.155904 -0.651692
v -0.410182 -0.305817 -0.613880
v -0.369153 -0.443978 -0.552477
v -0.313939 -0.565076 -0.469844
v -0.246660 -0.664459 -0.369154
v -0.169903 -0.738308 -0.254277
v -0.086616 -0.783783 -0.129629
v -0.286781 0.000000 -0.692351
v -0.299940 -0.155904 -0.724121
v -0.282538 -0.305817 -0.682107
v -0.254277 -0.443978 -0.613880
v -0.216245 -0.565076 -0.522062
v -0.169903 -0.664459 -0.410181
v -0.117031 -0.738308 -0.282538
v -0.059662 -0.783783 -0.144037
v -0.146199 0.000000 -0.734995
v -0.152908 -0.155904 -0.768723
v -0.144037 -0.305817 -0.724121
v -0.129629 -0.443978 -0.651691
v -0.110241 -0.565076 -0.554218
v -0.086615 -0.664459 -0.435446
v -0.059662 -0.738308 -0.299941
v -0.030415 -0.783783 -0.152908
v 0.000000 -0.305817 -0.738307
v 0.000000 -0.565076 -0.565076
v 0.000000 -0.664459 -0.443977
v 0.000000 -0.738308 -0.305817
v 0.000000 -0.783783 -0.155904
v 0.155904 0.000000 -0.783783
v 0.000000 0.000000 -0.799138
v 0.305817 0.000000 -0.738308
v 0.443978 0.000000 -0.664459
v 0.565076 0.000000 -0.565076
v 0.664459 0.000000 -0.443977
v 0.738308 0.000000 -0.305817
v 0.783783 0.000000 -0.155904
v 0.799138 0.000000 0.000000
v 0.783783 0.000000 0.155904
v 0.738307 0.000000 0.305817
v 0.664459 0.000000 0.443977
v 0.565076 0.000000 0.565076
v 0.443977 0.000000 0.664459
v 0.305817 0.000000 0.738307
v 0.155904 0.000000 0.783783
v -0.000000 0.000000 0.799138
v -0.155904 0.000000 0.783783
v -0.305817 0.000000 0.738307
v -0.443977 0.000000 0.664459
v -0.565076 0.000000 0.565076
v -0.664459 0.000000 0.443977
v -0.738307 0.000000 0.305816
v -0.783783 0.000000 0.155904
v -0.799138 0.000000 -0.000000
v -0.783782 0.000000 -0.155904
v -0.738307 0.000000 -0.305817
v -0.664458 0.000000 -0.443977
v -0.565075 0.000000 -0.565076
v -0.443977 0.000000 -0.664459
v -0.305816 0.000000 -0.738307
v -0.155904 0.000000 -0.783782
v 0.146200 0.000000 -0.734996
v 0.000000 0.000000 -0.749396
v 0.286781 0.000000 -0.692351
v 0.416342 0.000000 -0.623100
v 0.529903 0.000000 -0.529903
v 0.623100 0.000000 -0.416342
v 0.692351 0.000000 -0.286781
v 0.734996 0.000000 -0.146200
v 0.749395 0.000000 0.000000
v 0.734996 0.000000 0.146200
v 0.692351 0.000000 0.286781
v 0.623099 0.000000 0.416342
v 0.529902 0.000000 0.529903
v 0.416342 0.000000 0.623100
v 0.286781 0.000000 0.692351
v 0.146200 0.000000 0.734996
v -0.000000 0.000000 0.749395
v -0.146200 0.000000 0.734996
v -0.286781 0.000000 0.692351
v -0.416342 0.000000 0.623099
v -0.529903 0.000000 0.529902
v -0.623099 0.000000 0.416341
v -0.692351 0.000000 0.286781
v -0.734996 0.000000 0.146199
v -0.749395 0.000000 -0.000000
v -0.734995 0.000000 -0.146200
v -0.692351 0.000000 -0.286781
v -0.623099 0.000000 -0.416342
v -0.529902 0.000000 -0.529902
v -0.416341 0.000000 -0.623099
v -0.286781 0.000000 -0.692351
v -0.146199 0.000000 -0.734995
v 0.146200 -0.234525 -0.734996
v 0.000000 -0.234525 -0.749396
v 0.286781 -0.234525 -0.692351
v 0.416342 -0.234525 -0.623100
v 0.529903 -0.234525 -0.529903
v 0.623100 -0.234525 -0.416342
v 0.692351 -0.234525 -0.286781
v 0.734996 -0.234525 -0.146200
v 0.749395 -0.234525 0.000000
v 0.734996 -0.234525 0.146200
v 0.692351 -0.234525 0.286781
v 0.623099 -0.234525 0.416342
v 0.529902 -0.234525 0.529903
v 0.416342 -0.234525 0.623100
v 0.286781 -0.234525 0.692351
v 0.146200 -0.234525 0.734996
v -0.000000 -0.234525 0.749395
v -0.146200 -0.234525 0.734996
v -0.286781 -0.234525 0.692351
v -0.416342 -0.234525 0.623099
v -0.529903 -0.234525 0.529902
v -0.623099 -0.234525 0.416341
v -0.692351 -0.234525 0.286781
v -0.734996 -0.234525 0.146199
v -0.749395 -0.234525 -0.000000
v -0.734995 -0.234525 -0.146200
v -0.692351 -0.234525 -0.286781
v -0.623099 -0.234525 -0.416342
v -0.529902 -0.234525 -0.529902
v -0.416341 -0.234525 -0.623099
v -0.286781 -0.234525 -0.692351
v -0.146199 -0.234525 -0.734995
v 0.155904 0.103357 -0.783783
v 0.000000 0.103357 -0.799138
v 0.305817 0.103357 -0.738308
v 0.443978 0.103357 -0.664459
v 0.565076 0.103357 -0.565076
v 0.664459 0.103357 -0.443977
v 0.738308 0.103357 -0.305817
v 0.783783 0.103357 -0.155904
v 0.799138 0.103357 0.000000
v 0.783783 0.103357 0.155904
v 0.738307 0.103357 0.305817
v 0.664459 0.103357 0.443977
v 0.565076 0.103357 0.565076
v 0.443977 0.103357 0.664459
v 0.305817 0.103357 0.738307
v 0.155904 0.103357 0.783783
v -0.000000 0.103357 0.799138
v -0.155904 0.103357 0.783783
v -0.305817 0.103357 0.738307
v -0.443977 0.103357 0.664459
v -0.565076 0.103357 0.565076
v -0.664459 0.103357 0.443977
v -0.738307 0.103357 0.305816
v -0.783783 0.103357 0.155904
v -0.799138 0.103357 -0.000000
v -0.783782 0.103357 -0.155904
v -0.738307 0.103357 -0.305817
v -0.664458 0.103357 -0.443977
v -0.565075 0.103357 -0.565076
v -0.443977 0.103357 -0.664459
v -0.305816 0.103357 -0.738307
v -0.155904 0.103357 -0.783782
v 0.146200 0.103357 -0.734996
v 0.000000 0.103357 -0.749396
v 0.286781 0.103357 -0.692351
v 0.416342 0.103357 -0.623100
v 0.529903 0.103357 -0.529903
v 0.623100 0.103357 -0.416342
v 0.692351 0.103357 -0.286781
v 0.734996 0.103357 -0.146200
v 0.749395 0.103357 0.000000
v 0.734996 0.103357 0.146200
v 0.692351 0.103357 0.286781
v 0.623099 0.103357 0.416342
v 0.529902 0.103357 0.529903
v 0.416342 0.103357 0.623100
v 0.286781 0.103357 0.692351
v 0.146200 0.103357 0.734996
v -0.000000 0.103357 0.749395
v -0.146200 0.103357 0.734996
v -0.286781 0.103357 0.692351
v -0.416342 0.103357 0.623099
v -0.529903 0.103357 0.529902
v -0.623099 0.103357 0.416341
v -0.692351 0.103357 0.286781
v -0.734996 0.103357 0.146199
v -0.749395 0.103357 -0.000000
v -0.734995 0.103357 -0.146200
v -0.692351 0.103357 -0.286781
v -0.623099 0.103357 -0.416342
v -0.529902 0.103357 -0.529902
v -0.416341 0.103357 -0.623099
v -0.286781 0.103357 -0.692351
v -0.146199 0.103357 -0.734995
vn 0.0938 -0.2890 -0.9527
vn 0.0865 -0.4696 -0.8786
vn 0.0759 -0.6326 -0.7708
vn 0.0624 -0.7715 -0.6332
vn 0.0464 -0.8810 -0.4709
vn 0.0286 -0.9565 -0.2902
vn 0.0097 -0.9951 -0.0980
vn 0.0975 -0.0975 -0.9904
vn 0.0286 -0.9951 -0.0942
vn 0.2889 -0.0976 -0.9524
vn 0.2779 -0.2890 -0.9161
vn 0.2563 -0.4696 -0.8448
vn 0.2248 -0.6326 -0.7412
vn 0.1847 -0.7715 -0.6088
vn 0.1374 -0.8810 -0.4528
vn 0.0846 -0.9565 -0.2790
vn 0.3651 -0.6326 -0.6831
vn 0.2999 -0.7715 -0.5611
vn 0.2230 -0.8810 -0.4173
vn 0.1374 -0.9565 -0.2571
vn 0.0464 -0.9951 -0.0869
vn 0.4691 -0.0975 -0.8777
vn 0.4513 -0.2890 -0.8443
vn 0.4162 -0.4696 -0.7786
vn 0.0625 -0.9951 -0.0761
vn 0.6314 -0.0975 -0.7693
vn 0.6073 -0.2890 -0.7400
vn 0.5601 -0.4696 -0.6825
vn 0.4913 -0.6326 -0.5987
vn 0.4036 -0.7715 -0.4918
vn 0.3002 -0.8810 -0.3658
vn 0.1850 -0.9565 -0.2254
vn 0.4918 -0.7715 -0.4036
vn 0.3658 -0.8810 -0.3002
vn 0.2254 -0.9565 -0.1850
vn 0.0761 -0.9951 -0.0625
vn 0.7693 -0.0975 -0.6314
vn 0.7400 -0.2890 -0.6073
vn 0.6825 -0.4696 -0.5601
vn 0.5987 -0.6326 -0.4913
vn 0.8443 -0.2890 -0.4513
vn 0.7786 -0.4696 -0.4162
vn 0.6831 -0.6326 -0.3651
vn 0.5611 -0.7715 -0.2999
vn 0.4173 -0.8810 -0.2230
vn 0.2571 -0.9565 -0.1374
vn 0.0869 -0.9951 -0.0464
vn 0.8777 -0.0975 -0.4691
vn 0.4528 -0.8810 -0.1374
vn 0.2790 -0.9565 -0.0846
vn 0.0942 -0.9951 -0.0286
vn 0.9524 -0.0975 -0.2889
vn 0.9161 -0.2890 -0.2779
vn 0.8448 -0.4696 -0.2563
vn 0.7412 -0.6326 -0.2248
vn 0.6088 -0.7715 -0.1847
vn 0.9527 -0.2890 -0.0938
vn 0.8786 -0.4696 -0.0865
vn 0.7708 -0.6326 -0.0759
vn 0.6332 -0.7715 -0.0624
vn 0.4709 -0.8810 -0.0464
vn 0.2902 -0.9565 -0.0286
vn 0.0980 -0.9951 -0.0097
vn 0.9904 -0.0975 -0.0975
vn 0.4709 -0.8810 0.0464
vn 0.2902 -0.9565 0.0286
vn 0.0980 -0.9951 0.0097
vn 0.9904 -0.0975 0.0976
vn 0.9527 -0.2890 0.0938
vn 0.8786 -0.4696 0.0865
vn 0.7708 -0.6326 0.0759
vn 0.6332 -0.7715 0.0624
vn 0.8448 -0.4696 0.2563
vn 0.7412 -0.6326 0.2248
vn 0.6088 -0.7715 0.1847
vn 0.4528 -0.8810 0.1374
vn 0.2790 -0.9565 0.0846
vn 0.0942 -0.9951 0.0286
vn 0.9524 -0.0975 0.2889
vn 0.9161 -0.2890 0.2779
vn 0.2571 -0.9565 0.1374
vn 0.0869 -0.9951 0.0464
vn 0.8777 -0.0975 0.4691
vn 0.8443 -0.2890 0.4513
vn 0.7786 -0.4696 0.4162
vn 0.6831 -0.6326 0.3651
vn 0.5611 -0.7715 0.2999
vn 0.4173 -0.8810 0.2230
vn 0.6825 -0.4696 0.5601
vn 0.5987 -0.6326 0.4913
vn 0.4918 -0.7715 0.4036
vn 0.3658 -0.8810 0.3002
vn 0.2254 -0.9565 0.1850
vn 0.0761 -0.9951 0.0625
vn 0.7693 -0.0975 0.6314
vn 0.7400 -0.2890 0.6073
vn 0.1850 -0.9565 0.2254
vn 0.0625 -0.9951 0.0761
vn 0.6314 -0.0975 0.7693
vn 0.6073 -0.2890 0.7400
vn 0.5601 -0.4696 0.6825
vn 0.4913 -0.6326 0.5987
vn 0.4036 -0.7715 0.4918
vn 0.3002 -0.8810 0.3658
vn 0.3651 -0.6326 0.6831
vn 0.2999 -0.7715 0.5611
vn 0.2230 -0.8810 0.4173
vn 0.1374 -0.9565 0.2571
vn 0.0464 -0.9951 0.0869
vn 0.4691 -0.0975 0.8777
vn 0.4513 -0.2890 0.8443
vn 0.4162 -0.4696 0.7786
vn 0.0286 -0.9951 0.0942
vn 0.2889 -0.0975 0.9524
vn 0.2779 -0.2890 0.9161
vn 0.2563 -0.4696 0.8448
vn 0.2248 -0.6326 0.7412
vn 0.1847 -0.7715 0.6088
vn 0.1374 -0.8810 0.4528
vn 0.0846 -0.9565 0.2790
vn 0.0624 -0.7715 0.6332
vn 0.0464 -0.8810 0.4709
vn 0.0286 -0.9565 0.2902
vn 0.0097 -0.9951 0.0980
vn 0.0975 -0.0975 0.9904
vn 0.0938 -0.2890 0.9527
vn 0.0865 -0.4696 0.8786
vn 0.0759 -0.6326 0.7708
vn -0.0976 -0.0975 0.9904
vn -0.0938 -0.2890 0.9527
vn -0.0865 -0.4696 0.8786
vn -0.0759 -0.6326 0.7708
vn -0.0624 -0.7715 0.6332
vn -0.0464 -0.8810 0.4709
vn -0.0286 -0.9565 0.2902
vn -0.0097 -0.9951 0.0980
vn -0.1847 -0.7715 0.6088
vn -0.1374 -0.8810 0.4528
vn -0.0846 -0.9565 0.2790
vn -0.0286 -0.9951 0.0942
vn -0.2889 -0.0975 0.9524
vn -0.2779 -0.2890 0.9161
vn -0.2563 -0.4696 0.8448
vn -0.2248 -0.6326 0.7412
vn -0.4513 -0.2890 0.8443
vn -0.4162 -0.4696 0.7786
vn -0.3651 -0.6326 0.6831
vn -0.2999 -0.7715 0.5611
vn -0.2230 -0.8810 0.4173
vn -0.1374 -0.9565 0.2571
vn -0.0464 -0.9951 0.0869
vn -0.4691 -0.0975 0.8777
vn -0.3002 -0.8810 0.3658
vn -0.1850 -0.9565 0.2254
vn -0.0625 -0.9951 0.0761
vn -0.6314 -0.0975 0.7693
vn -0.6073 -0.2890 0.7400
vn -0.5601 -0.4696 0.6825
vn -0.4913 -0.6326 0.5987
vn -0.4036 -0.7715 0.4918
vn -0.7400 -0.2890 0.6073
vn -0.6825 -0.4696 0.5601
vn -0.5987 -0.6326 0.4913
vn -0.4918 -0.7715 0.4036
vn -0.3658 -0.8810 0.3002
vn -0.2254 -0.9565 0.1850
vn -0.0761 -0.9951 0.0625
vn -0.7693 -0.0975 0.6314
vn -0.4173 -0.8810 0.2230
vn -0.2571 -0.9565 0.1374
vn -0.0869 -0.9951 0.0464
vn -0.8777 -0.0975 0.4691
vn -0.8443 -0.2890 0.4513
vn -0.7786 -0.4696 0.4162
vn -0.6831 -0.6326 0.3651
vn -0.5611 -0.7715 0.2999
vn -0.8448 -0.4696 0.2563
vn -0.7412 -0.6326 0.2248
vn -0.6088 -0.7715 0.1847
vn -0.4528 -0.8810 0.1374
vn -0.2790 -0.9565 0.0846
vn -0.0942 -0.9951 0.0286
vn -0.9524 -0.0975 0.2889
vn -0.9161 -0.2890 0.2779
vn -0.2902 -0.9565 0.0286
vn -0.0980 -0.9951 0.0097
vn -0.9904 -0.0975 0.0975
vn -0.9527 -0.2890 0.0938
vn -0.8786 -0.4696 0.0865
vn -0.7708 -0.6326 0.0759
vn -0.6332 -0.7715 0.0624
vn -0.4709 -0.8810 0.0464
vn -0.7708 -0.6326 -0.0759
vn -0.6332 -0.7715 -0.0624
vn -0.4709 -0.8810 -0.0464
vn -0.2902 -0.9565 -0.0286
vn -0.0980 -0.9951 -0.0097
vn -0.9904 -0.0975 -0.0976
vn -0.9527 -0.2890 -0.0938
vn -0.8786 -0.4696 -0.0865
vn -0.0942 -0.9951 -0.0286
vn -0.9524 -0.0975 -0.2889
vn -0.9161 -0.2890 -0.2779
vn -0.8448 -0.4696 -0.2563
vn -0.7412 -0.6326 -0.2248
vn -0.6088 -0.7715 -0.1847
vn -0.4528 -0.8810 -0.1374
vn -0.2790 -0.9565 -0.0846
vn -0.6831 -0.6326 -0.3651
vn -0.5611 -0.7715 -0.2999
vn -0.4173 -0.8810 -0.2231
vn -0.2571 -0.9565 -0.1374
vn -0.0869 -0.9951 -0.0464
vn -0.8777 -0.0975 -0.4691
vn -0.8443 -0.2890 -0.4513
vn -0.7786 -0.4696 -0.4162
vn -0.0761 -0.9951 -0.0625
vn -0.7693 -0.0975 -0.6314
vn -0.7400 -0.2890 -0.6073
vn -0.6825 -0.4696 -0.5601
vn -0.5987 -0.6326 -0.4913
vn -0.4918 -0.7715 -0.4036
vn -0.3658 -0.8810 -0.3002
vn -0.2254 -0.9565 -0.1850
vn -0.4036 -0.7715 -0.4918
vn -0.3002 -0.8810 -0.3658
vn -0.1850 -0.9565 -0.2254
vn -0.0625 -0.9951 -0.0761
vn -0.6314 -0.0975 -0.7693
vn -0.6073 -0.2890 -0.7400
vn -0.5601 -0.4696 -0.6825
vn -0.4913 -0.6326 -0.5987
vn -0.4691 -0.0975 -0.8777
vn -0.4513 -0.2890 -0.8443
vn -0.4162 -0.4696 -0.7786
vn -0.3651 -0.6326 -0.6831
vn -0.2999 -0.7715 -0.5611
vn -0.2230 -0.8810 -0.4173
vn -0.1374 -0.9565 -0.2571
vn -0.0464 -0.9951 -0.0869
vn -0.1847 -0.7715 -0.6088
vn -0.1374 -0.8810 -0.4528
vn -0.0846 -0.9565 -0.2790
vn -0.0286 -0.9951 -0.0942
vn -0.2889 -0.0975 -0.9524
vn -0.2779 -0.2890 -0.9161
vn -0.2563 -0.4696 -0.8448
vn -0.2248 -0.6326 -0.7412
vn -0.0938 -0.2890 -0.9527
vn -0.0865 -0.4696 -0.8786
vn -0.0759 -0.6326 -0.7708
vn -0.0624 -0.7715 -0.6332
vn -0.0464 -0.8810 -0.4709
vn -0.0286 -0.9565 -0.2902
vn -0.0097 -0.9951 -0.0980
vn -0.0976 -0.0975 -0.9904
vn -0.0000 1.0000 -0.0000
vn -0.7730 -0.0000 0.6344
vn -0.4714 -0.0000 0.8819
vn 0.2903 -0.0000 -0.9569
vn 0.2903 -0.0000 0.9569
vn 0.9569 -0.0000 -0.2903
vn -0.6344 -0.0000 0.7730
vn -0.7730 -0.0000 -0.6344
vn 0.4714 -0.0000 0.8819
vn 0.7730 -0.0000 0.6344
vn 0.6344 -0.0000 0.7730
vn -0.2903 -0.0000 0.9569
vn 0.7730 -0.0000 -0.6344
vn -0.0980 -0.0000 0.9952
vn 0.8819 -0.0000 0.4714
vn -0.0980 -0.0000 -0.9952
vn 0.9569 -0.0000 0.2903
vn 0.9952 -0.0000 0.0980
vn 0.4714 -0.0000 -0.8819
vn -0.2903 -0.0000 -0.9569
vn -0.9569 -0.0000 -0.2903
vn 0.9952 -0.0000 -0.0980
vn 0.0980 -0.0000 -0.9952
vn -0.9952 -0.0000 0.0980
vn 0.8819 -0.0000 -0.4714
vn -0.6344 -0.0000 -0.7730
vn -0.9952 -0.0000 -0.0980
vn -0.8819 -0.0000 -0.4714
vn -0.4714 -0.0000 -0.8819
vn 0.0980 -0.0000 0.9952
vn -0.8819 -0.0000 0.4714
vn 0.6344 -0.0000 -0.7730
vn -0.9569 -0.0000 0.2903
vt 0.750000 0.375000
vt 0.750000 0.437500
vt 0.718750 0.437500
vt 0.718750 0.375000
vt 0.750000 0.312500
vt 0.718750 0.312500
vt 0.750000 0.250000
vt 0.718750 0.250000
vt 0.750000 0.187500
vt 0.718750 0.187500
vt 0.750000 0.125000
vt 0.718750 0.125000
vt 0.750000 0.062500
vt 0.718750 0.062500
vt 0.734375 0.000000
vt 0.750000 0.500000
vt 0.718750 0.500000
vt 0.703125 0.000000
vt 0.687500 0.062500
vt 0.687500 0.500000
vt 0.687500 0.437500
vt 0.687500 0.375000
vt 0.687500 0.312500
vt 0.687500 0.250000
vt 0.687500 0.187500
vt 0.687500 0.125000
vt 0.656250 0.312500
vt 0.656250 0.250000
vt 0.656250 0.187500
vt 0.656250 0.125000
vt 0.656250 0.062500
vt 0.671875 0.000000
vt 0.656250 0.500000
vt 0.656250 0.437500
vt 0.656250 0.375000
vt 0.640625 0.000000
vt 0.625000 0.062500
vt 0.625000 0.500000
vt 0.625000 0.437500
vt 0.625000 0.375000
vt 0.625000 0.312500
vt 0.625000 0.250000
vt 0.625000 0.187500
vt 0.625000 0.125000
vt 0.593750 0.250000
vt 0.593750 0.187500
vt 0.593750 0.125000
vt 0.593750 0.062500
vt 0.609375 0.000000
vt 0.593750 0.500000
vt 0.593750 0.437500
vt 0.593750 0.375000
vt 0.593750 0.312500
vt 0.562500 0.437500
vt 0.562500 0.375000
vt 0.562500 0.312500
vt 0.562500 0.250000
vt 0.562500 0.187500
vt 0.562500 0.125000
vt 0.562500 0.062500
vt 0.578125 0.000000
vt 0.562500 0.500000
vt 0.531250 0.187500
vt 0.531250 0.125000
vt 0.531250 0.062500
vt 0.546875 0.000000
vt 0.531250 0.500000
vt 0.531250 0.437500
vt 0.531250 0.375000
vt 0.531250 0.312500
vt 0.531250 0.250000
vt 0.500000 0.437500
vt 0.500000 0.375000
vt 0.500000 0.312500
vt 0.500000 0.250000
vt 0.500000 0.187500
vt 0.500000 0.125000
vt 0.500000 0.062500
vt 0.515625 0.000000
vt 0.500000 0.500000
vt 0.468750 0.187500
vt 0.468750 0.125000
vt 0.468750 0.062500
vt 0.484375 0.000000
vt 0.468750 0.500000
vt 0.468750 0.437500
vt 0.468750 0.375000
vt 0.468750 0.312500
vt 0.468750 0.250000
vt 0.437500 0.375000
vt 0.437500 0.312500
vt 0.437500 0.250000
vt 0.437500 0.187500
vt 0.437500 0.125000
vt 0.437500 0.062500
vt 0.453125 0.000000
vt 0.437500 0.500000
vt 0.437500 0.437500
vt 0.406250 0.125000
vt 0.406250 0.062500
vt 0.421875 0.000000
vt 0.406250 0.500000
vt 0.406250 0.437500
vt 0.406250 0.375000
vt 0.406250 0.312500
vt 0.406250 0.250000
vt 0.406250 0.187500
vt 0.375000 0.375000
vt 0.375000 0.312500
vt 0.375000 0.250000
vt 0.375000 0.187500
vt 0.375000 0.125000
vt 0.375000 0.062500
vt 0.390625 0.000000
vt 0.375000 0.500000
vt 0.375000 0.437500
vt 0.343750 0.125000
vt 0.343750 0.062500
vt 0.359375 0.000000
vt 0.343750 0.500000
vt 0.343750 0.437500
vt 0.343750 0.375000
vt 0.343750 0.312500
vt 0.343750 0.250000
vt 0.343750 0.187500
vt 0.312500 0.312500
vt 0.312500 0.250000
vt 0.312500 0.187500
vt 0.312500 0.125000
vt 0.312500 0.062500
vt 0.328125 0.000000
vt 0.312500 0.500000
vt 0.312500 0.437500
vt 0.312500 0.375000
vt 0.296875 0.000000
vt 0.281250 0.062500
vt 0.281250 0.500000
vt 0.281250 0.437500
vt 0.281250 0.375000
vt 0.281250 0.312500
vt 0.281250 0.250000
vt 0.281250 0.187500
vt 0.281250 0.125000
vt 0.250000 0.250000
vt 0.250000 0.187500
vt 0.250000 0.125000
vt 0.250000 0.062500
vt 0.265625 0.000000
vt 0.250000 0.500000
vt 0.250000 0.437500
vt 0.250000 0.375000
vt 0.250000 0.312500
vt 0.218750 0.500000
vt 0.218750 0.437500
vt 0.218750 0.375000
vt 0.218750 0.312500
vt 0.218750 0.250000
vt 0.218750 0.187500
vt 0.218750 0.125000
vt 0.218750 0.062500
vt 0.234375 0.000000
vt 0.187500 0.250000
vt 0.187500 0.187500
vt 0.187500 0.125000
vt 0.187500 0.062500
vt 0.203125 0.000000
vt 0.187500 0.500000
vt 0.187500 0.437500
vt 0.187500 0.375000
vt 0.187500 0.312500
vt 0.156250 0.437500
vt 0.156250 0.375000
vt 0.156250 0.312500
vt 0.156250 0.250000
vt 0.156250 0.187500
vt 0.156250 0.125000
vt 0.156250 0.062500
vt 0.171875 0.000000
vt 0.156250 0.500000
vt 0.125000 0.187500
vt 0.125000 0.125000
vt 0.125000 0.062500
vt 0.140625 0.000000
vt 0.125000 0.500000
vt 0.125000 0.437500
vt 0.125000 0.375000
vt 0.125000 0.312500
vt 0.125000 0.250000
vt 0.093750 0.437500
vt 0.093750 0.375000
vt 0.093750 0.312500
vt 0.093750 0.250000
vt 0.093750 0.187500
vt 0.093750 0.125000
vt 0.093750 0.062500
vt 0.109375 0.000000
vt 0.093750 0.500000
vt 0.062500 0.187500
vt 0.062500 0.125000
vt 0.062500 0.062500
vt 0.078125 0.000000
vt 0.062500 0.500000
vt 0.062500 0.437500
vt 0.062500 0.375000
vt 0.062500 0.312500
vt 0.062500 0.250000
vt 0.031250 0.375000
vt 0.031250 0.312500
vt 0.031250 0.250000
vt 0.031250 0.187500
vt 0.031250 0.125000
vt 0.031250 0.062500
vt 0.046875 0.000000
vt 0.031250 0.500000
vt 0.031250 0.437500
vt 0.000000 0.125000
vt 0.000000 0.062500
vt 0.015625 0.000000
vt 0.000000 0.500000
vt 0.000000 0.437500
vt 0.000000 0.375000
vt 0.000000 0.312500
vt 0.000000 0.250000
vt 0.000000 0.187500
vt 1.000000 0.250000
vt 1.000000 0.312500
vt 0.968750 0.312500
vt 0.968750 0.250000
vt 1.000000 0.187500
vt 0.968750 0.187500
vt 1.000000 0.125000
vt 0.968750 0.125000
vt 1.000000 0.062500
vt 0.968750 0.062500
vt 0.984375 0.000000
vt 1.000000 0.437500
vt 1.000000 0.500000
vt 0.968750 0.500000
vt 0.968750 0.437500
vt 1.000000 0.375000
vt 0.968750 0.375000
vt 0.953125 0.000000
vt 0.937500 0.062500
vt 0.937500 0.500000
vt 0.937500 0.437500
vt 0.937500 0.375000
vt 0.937500 0.312500
vt 0.937500 0.250000
vt 0.937500 0.187500
vt 0.937500 0.125000
vt 0.906250 0.312500
vt 0.906250 0.250000
vt 0.906250 0.187500
vt 0.906250 0.125000
vt 0.906250 0.062500
vt 0.921875 0.000000
vt 0.906250 0.500000
vt 0.906250 0.437500
vt 0.906250 0.375000
vt 0.890625 0.000000
vt 0.875000 0.062500
vt 0.875000 0.500000
vt 0.875000 0.437500
vt 0.875000 0.375000
vt 0.875000 0.312500
vt 0.875000 0.250000
vt 0.875000 0.187500
vt 0.875000 0.125000
vt 0.843750 0.250000
vt 0.843750 0.187500
vt 0.843750 0.125000
vt 0.843750 0.062500
vt 0.859375 0.000000
vt 0.843750 0.500000
vt 0.843750 0.437500
vt 0.843750 0.375000
vt 0.843750 0.312500
vt 0.812500 0.500000
vt 0.812500 0.437500
vt 0.812500 0.375000
vt 0.812500 0.312500
vt 0.812500 0.250000
vt 0.812500 0.187500
vt 0.812500 0.125000
vt 0.812500 0.062500
vt 0.828125 0.000000
vt 0.781250 0.250000
vt 0.781250 0.187500
vt 0.781250 0.125000
vt 0.781250 0.062500
vt 0.796875 0.000000
vt 0.781250 0.500000
vt 0.781250 0.437500
vt 0.781250 0.375000
vt 0.781250 0.312500
vt 0.765625 0.000000
vt 0.177557 0.500000
vt 0.205615 0.500000
vt 0.620162 0.500000
vt 0.590331 0.500000
vt 0.796994 0.500000
vt 0.767977 0.500000
vt 0.649939 0.500000
vt 0.825635 0.500000
vt 0.679641 0.500000
vt 0.853692 0.500000
vt 0.709240 0.500000
vt 0.880733 0.500000
vt 0.738702 0.500000
vt 0.905593 0.500000
vt 0.923073 0.500000
vt 0.833827 0.500000
vt 0.197423 0.500000
vt 0.108177 0.500000
vt 0.125657 0.500000
vt 0.150517 0.500000
vt 0.560463 0.500000
vt 0.530573 0.500000
vt 0.500677 0.500000
vt 0.470787 0.500000
vt 0.440919 0.500000
vt 0.411088 0.500000
vt 0.381311 0.500000
vt 0.351609 0.500000
vt 0.322010 0.500000
vt 0.292548 0.500000
vt 0.263272 0.500000
vt 0.234256 0.500000
s 0
f 253/1/1 2/2/1 6/3/1 7/4/1
f 3/5/2 253/1/2 7/4/2 8/6/2
f 254/7/3 3/5/3 8/6/3 9/8/3
f 255/9/4 254/7/4 9/8/4 10/10/4
f 256/11/5 255/9/5 10/10/5 11/12/5
f 257/13/6 256/11/6 11/12/6 12/14/6
f 4/15/7 257/13/7 12/14/7
f 2/2/8 259/16/8 258/17/8 6/3/8
f 4/18/9 12/14/9 20/19/9
f 6/3/10 258/17/10 260/20/10 14/21/10
f 7/4/11 6/3/11 14/21/11 15/22/11
f 8/6/12 7/4/12 15/22/12 16/23/12
f 9/8/13 8/6/13 16/23/13 17/24/13
f 10/10/14 9/8/14 17/24/14 18/25/14
f 11/12/15 10/10/15 18/25/15 19/26/15
f 12/14/16 11/12/16 19/26/16 20/19/16
f 17/24/17 16/23/17 24/27/17 25/28/17
f 18/25/18 17/24/18 25/28/18 26/29/18
f 19/26/19 18/25/19 26/29/19 27/30/19
f 20/19/20 19/26/20 27/30/20 28/31/20
f 4/32/21 20/19/21 28/31/21
f 14/21/22 260/20/22 261/33/22 22/34/22
f 15/22/23 14/21/23 22/34/23 23/35/23
f 16/23/24 15/22/24 23/35/24 24/27/24
f 4/36/25 28/31/25 36/37/25
f 22/34/26 261/33/26 262/38/26 30/39/26
f 23/35/27 22/34/27 30/39/27 31/40/27
f 24/27/28 23/35/28 31/40/28 32/41/28
f 25/28/29 24/27/29 32/41/29 33/42/29
f 26/29/30 25/28/30 33/42/30 34/43/30
f 27/30/31 26/29/31 34/43/31 35/44/31
f 28/31/32 27/30/32 35/44/32 36/37/32
f 34/43/33 33/42/33 41/45/33 42/46/33
f 35/44/34 34/43/34 42/46/34 43/47/34
f 36/37/35 35/44/35 43/47/35 44/48/35
f 4/49/36 36/37/36 44/48/36
f 30/39/37 262/38/37 263/50/37 38/51/37
f 31/40/38 30/39/38 38/51/38 39/52/38
f 32/41/39 31/40/39 39/52/39 40/53/39
f 33/42/40 32/41/40 40/53/40 41/45/40
f 39/52/41 38/51/41 46/54/41 47/55/41
f 40/53/42 39/52/42 47/55/42 48/56/42
f 41/45/43 40/53/43 48/56/43 49/57/43
f 42/46/44 41/45/44 49/57/44 50/58/44
f 43/47/45 42/46/45 50/58/45 51/59/45
f 44/48/46 43/47/46 51/59/46 52/60/46
f 4/61/47 44/48/47 52/60/47
f 38/51/48 263/50/48 264/62/48 46/54/48
f 51/59/49 50/58/49 58/63/49 59/64/49
f 52/60/50 51/59/50 59/64/50 60/65/50
f 4/66/51 52/60/51 60/65/51
f 46/54/52 264/62/52 265/67/52 54/68/52
f 47/55/53 46/54/53 54/68/53 55/69/53
f 48/56/54 47/55/54 55/69/54 56/70/54
f 49/57/55 48/56/55 56/70/55 57/71/55
f 50/58/56 49/57/56 57/71/56 58/63/56
f 55/69/57 54/68/57 62/72/57 63/73/57
f 56/70/58 55/69/58 63/73/58 64/74/58
f 57/71/59 56/70/59 64/74/59 65/75/59
f 58/63/60 57/71/60 65/75/60 66/76/60
f 59/64/61 58/63/61 66/76/61 67/77/61
f 60/65/62 59/64/62 67/77/62 68/78/62
f 4/79/63 60/65/63 68/78/63
f 54/68/64 265/67/64 266/80/64 62/72/64
f 67/77/65 66/76/65 74/81/65 75/82/65
f 68/78/66 67/77/66 75/82/66 76/83/66
f 4/84/67 68/78/67 76/83/67
f 62/72/68 266/80/68 267/85/68 70/86/68
f 63/73/69 62/72/69 70/86/69 71/87/69
f 64/74/70 63/73/70 71/87/70 72/88/70
f 65/75/71 64/74/71 72/88/71 73/89/71
f 66/76/72 65/75/72 73/89/72 74/81/72
f 72/88/73 71/87/73 79/90/73 80/91/73
f 73/89/74 72/88/74 80/91/74 81/92/74
f 74/81/75 73/89/75 81/92/75 82/93/75
f 75/82/76 74/81/76 82/93/76 83/94/76
f 76/83/77 75/82/77 83/94/77 84/95/77
f 4/96/78 76/83/78 84/95/78
f 70/86/79 267/85/79 268/97/79 78/98/79
f 71/87/80 70/86/80 78/98/80 79/90/80
f 84/95/81 83/94/81 91/99/81 92/100/81
f 4/101/82 84/95/82 92/100/82
f 78/98/83 268/97/83 269/102/83 86/103/83
f 79/90/84 78/98/84 86/103/84 87/104/84
f 80/91/85 79/90/85 87/104/85 88/105/85
f 81/92/86 80/91/86 88/105/86 89/106/86
f 82/93/87 81/92/87 89/106/87 90/107/87
f 83/94/88 82/93/88 90/107/88 91/99/88
f 88/105/89 87/104/89 95/108/89 96/109/89
f 89/106/90 88/105/90 96/109/90 97/110/90
f 90/107/91 89/106/91 97/110/91 98/111/91
f 91/99/92 90/107/92 98/111/92 99/112/92
f 92/100/93 91/99/93 99/112/93 100/113/93
f 4/114/94 92/100/94 100/113/94
f 86/103/95 269/102/95 270/115/95 94/116/95
f 87/104/96 86/103/96 94/116/96 95/108/96
f 100/113/97 99/112/97 107/117/97 108/118/97
f 4/119/98 100/113/98 108/118/98
f 94/116/99 270/115/99 271/120/99 102/121/99
f 95/108/100 94/116/100 102/121/100 103/122/100
f 96/109/101 95/108/101 103/122/101 104/123/101
f 97/110/102 96/109/102 104/123/102 105/124/102
f 98/111/103 97/110/103 105/124/103 106/125/103
f 99/112/104 98/111/104 106/125/104 107/117/104
f 105/124/105 104/123/105 112/126/105 113/127/105
f 106/125/106 105/124/106 113/127/106 114/128/106
f 107/117/107 106/125/107 114/128/107 115/129/107
f 108/118/108 107/117/108 115/129/108 116/130/108
f 4/131/109 108/118/109 116/130/109
f 102/121/110 271/120/110 272/132/110 110/133/110
f 103/122/111 102/121/111 110/133/111 111/134/111
f 104/123/112 103/122/112 111/134/112 112/126/112
f 4/135/113 116/130/113 124/136/113
f 110/133/114 272/132/114 273/137/114 118/138/114
f 111/134/115 110/133/115 118/138/115 119/139/115
f 112/126/116 111/134/116 119/139/116 120/140/116
f 113/127/117 112/126/117 120/140/117 121/141/117
f 114/128/118 113/127/118 121/141/118 122/142/118
f 115/129/119 114/128/119 122/142/119 123/143/119
f 116/130/120 115/129/120 123/143/120 124/136/120
f 122/142/121 121/141/121 129/144/121 130/145/121
f 123/143/122 122/142/122 130/145/122 131/146/122
f 124/136/123 123/143/123 131/146/123 132/147/123
f 4/148/124 124/136/124 132/147/124
f 118/138/125 273/137/125 274/149/125 126/150/125
f 119/139/126 118/138/126 126/150/126 127/151/126
f 120/140/127 119/139/127 127/151/127 128/152/127
f 121/141/128 120/140/128 128/152/128 129/144/128
f 126/150/129 274/149/129 275/153/129 134/154/129
f 127/151/130 126/150/130 134/154/130 135/155/130
f 128/152/131 127/151/131 135/155/131 136/156/131
f 129/144/132 128/152/132 136/156/132 137/157/132
f 130/145/133 129/144/133 137/157/133 138/158/133
f 131/146/134 130/145/134 138/158/134 139/159/134
f 132/147/135 131/146/135 139/159/135 140/160/135
f 4/161/136 132/147/136 140/160/136
f 138/158/137 137/157/137 145/162/137 146/163/137
f 139/159/138 138/158/138 146/163/138 147/164/138
f 140/160/139 139/159/139 147/164/139 148/165/139
f 4/166/140 140/160/140 148/165/140
f 134/154/141 275/153/141 276/167/141 142/168/141
f 135/155/142 134/154/142 142/168/142 143/169/142
f 136/156/143 135/155/143 143/169/143 144/170/143
f 137/157/144 136/156/144 144/170/144 145/162/144
f 143/169/145 142/168/145 150/171/145 151/172/145
f 144/170/146 143/169/146 151/172/146 152/173/146
f 145/162/147 144/170/147 152/173/147 153/174/147
f 146/163/148 145/162/148 153/174/148 154/175/148
f 147/164/149 146/163/149 154/175/149 155/176/149
f 148/165/150 147/164/150 155/176/150 156/177/150
f 4/178/151 148/165/151 156/177/151
f 142/168/152 276/167/152 277/179/152 150/171/152
f 155/176/153 154/175/153 162/180/153 163/181/153
f 156/177/154 155/176/154 163/181/154 164/182/154
f 4/183/155 156/177/155 164/182/155
f 150/171/156 277/179/156 278/184/156 158/185/156
f 151/172/157 150/171/157 158/185/157 159/186/157
f 152/173/158 151/172/158 159/186/158 160/187/158
f 153/174/159 152/173/159 160/187/159 161/188/159
f 154/175/160 153/174/160 161/188/160 162/180/160
f 159/186/161 158/185/161 166/189/161 167/190/161
f 160/187/162 159/186/162 167/190/162 168/191/162
f 161/188/163 160/187/163 168/191/163 169/192/163
f 162/180/164 161/188/164 169/192/164 170/193/164
f 163/181/165 162/180/165 170/193/165 171/194/165
f 164/182/166 163/181/166 171/194/166 172/195/166
f 4/196/167 164/182/167 172/195/167
f 158/185/168 278/184/168 279/197/168 166/189/168
f 171/194/169 170/193/169 178/198/169 179/199/169
f 172/195/170 171/194/170 179/199/170 180/200/170
f 4/201/171 172/195/171 180/200/171
f 166/189/172 279/197/172 280/202/172 174/203/172
f 167/190/173 166/189/173 174/203/173 175/204/173
f 168/191/174 167/190/174 175/204/174 176/205/174
f 169/192/175 168/191/175 176/205/175 177/206/175
f 170/193/176 169/192/176 177/206/176 178/198/176
f 176/205/177 175/204/177 183/207/177 184/208/177
f 177/206/178 176/205/178 184/208/178 185/209/178
f 178/198/179 177/206/179 185/209/179 186/210/179
f 179/199/180 178/198/180 186/210/180 187/211/180
f 180/200/181 179/199/181 187/211/181 188/212/181
f 4/213/182 180/200/182 188/212/182
f 174/203/183 280/202/183 281/214/183 182/215/183
f 175/204/184 174/203/184 182/215/184 183/207/184
f 188/212/185 187/211/185 195/216/185 196/217/185
f 4/218/186 188/212/186 196/217/186
f 182/215/187 281/214/187 282/219/187 190/220/187
f 183/207/188 182/215/188 190/220/188 191/221/188
f 184/208/189 183/207/189 191/221/189 192/222/189
f 185/209/190 184/208/190 192/222/190 193/223/190
f 186/210/191 185/209/191 193/223/191 194/224/191
f 187/211/192 186/210/192 194/224/192 195/216/192
f 193/225/193 192/226/193 200/227/193 201/228/193
f 194/229/194 193/225/194 201/228/194 202/230/194
f 195/231/195 194/229/195 202/230/195 203/232/195
f 196/233/196 195/231/196 203/232/196 204/234/196
f 4/235/197 196/233/197 204/234/197
f 190/236/198 282/237/198 283/238/198 198/239/198
f 191/240/199 190/236/199 198/239/199 199/241/199
f 192/226/200 191/240/200 199/241/200 200/227/200
f 4/242/201 204/234/201 212/243/201
f 198/239/202 283/238/202 284/244/202 206/245/202
f 199/241/203 198/239/203 206/245/203 207/246/203
f 200/227/204 199/241/204 207/246/204 208/247/204
f 201/228/205 200/227/205 208/247/205 209/248/205
f 202/230/206 201/228/206 209/248/206 210/249/206
f 203/232/207 202/230/207 210/249/207 211/250/207
f 204/234/208 203/232/208 211/250/208 212/243/208
f 209/248/209 208/247/209 216/251/209 217/252/209
f 210/249/210 209/248/210 217/252/210 218/253/210
f 211/250/211 210/249/211 218/253/211 219/254/211
f 212/243/212 211/250/212 219/254/212 220/255/212
f 4/256/213 212/243/213 220/255/213
f 206/245/214 284/244/214 285/257/214 214/258/214
f 207/246/215 206/245/215 214/258/215 215/259/215
f 208/247/216 207/246/216 215/259/216 216/251/216
f 4/260/217 220/255/217 228/261/217
f 214/258/218 285/257/218 286/262/218 222/263/218
f 215/259/219 214/258/219 222/263/219 223/264/219
f 216/251/220 215/259/220 223/264/220 224/265/220
f 217/252/221 216/251/221 224/265/221 225/266/221
f 218/253/222 217/252/222 225/266/222 226/267/222
f 219/254/223 218/253/223 226/267/223 227/268/223
f 220/255/224 219/254/224 227/268/224 228/261/224
f 226/267/225 225/266/225 233/269/225 234/270/225
f 227/268/226 226/267/226 234/270/226 235/271/226
f 228/261/227 227/268/227 235/271/227 236/272/227
f 4/273/228 228/261/228 236/272/228
f 222/263/229 286/262/229 287/274/229 230/275/229
f 223/264/230 222/263/230 230/275/230 231/276/230
f 224/265/231 223/264/231 231/276/231 232/277/231
f 225/266/232 224/265/232 232/277/232 233/269/232
f 230/275/233 287/274/233 288/278/233 238/279/233
f 231/276/234 230/275/234 238/279/234 239/280/234
f 232/277/235 231/276/235 239/280/235 240/281/235
f 233/269/236 232/277/236 240/281/236 241/282/236
f 234/270/237 233/269/237 241/282/237 242/283/237
f 235/271/238 234/270/238 242/283/238 243/284/238
f 236/272/239 235/271/239 243/284/239 244/285/239
f 4/286/240 236/272/240 244/285/240
f 242/283/241 241/282/241 249/287/241 250/288/241
f 243/284/242 242/283/242 250/288/242 251/289/242
f 244/285/243 243/284/243 251/289/243 252/290/243
f 4/291/244 244/285/244 252/290/244
f 238/279/245 288/278/245 289/292/245 246/293/245
f 239/280/246 238/279/246 246/293/246 247/294/246
f 240/281/247 239/280/247 247/294/247 248/295/247
f 241/282/248 240/281/248 248/295/248 249/287/248
f 247/294/249 246/293/249 2/2/249 253/1/249
f 248/295/250 247/294/250 253/1/250 3/5/250
f 249/287/251 248/295/251 3/5/251 254/7/251
f 250/288/252 249/287/252 254/7/252 255/9/252
f 251/289/253 250/288/253 255/9/253 256/11/253
f 252/290/254 251/289/254 256/11/254 257/13/254
f 4/296/255 252/290/255 257/13/255
f 246/293/256 289/292/256 259/16/256 2/2/256
f 149/297/257 141/298/257 308/298/257 309/297/257
f 29/299/258 37/300/258 391/300/258 390/299/258
f 277/179/259 276/167/259 372/167/259 373/179/259
f 260/20/260 258/17/260 354/17/260 356/20/260
f 237/301/261 245/302/261 417/302/261 416/301/261
f 265/67/262 264/62/262 360/62/262 361/67/262
f 21/303/263 29/299/263 390/299/263 389/303/263
f 286/262/264 285/257/264 381/257/264 382/262/264
f 229/304/265 237/301/265 416/301/265 415/304/265
f 270/115/266 269/102/266 365/102/266 366/115/266
f 13/305/259 21/303/259 389/303/259 388/305/259
f 221/306/267 229/304/267 415/304/267 414/306/267
f 5/307/268 13/305/268 388/305/268 386/307/268
f 213/308/266 221/306/266 414/306/266 413/308/266
f 263/50/269 262/38/269 358/38/269 359/50/269
f 1/309/270 5/307/270 386/307/270 387/309/270
f 205/310/271 213/308/271 413/308/271 412/310/271
f 259/16/272 289/292/272 385/292/272 355/16/272
f 268/97/273 267/85/273 363/85/273 364/97/273
f 197/311/273 205/310/273 412/310/273 411/311/273
f 189/312/274 197/311/274 411/311/274 410/312/274
f 261/33/275 260/20/275 356/20/275 357/33/275
f 289/292/276 288/278/276 384/278/276 385/292/276
f 284/244/277 283/238/277 379/238/277 380/244/277
f 181/313/278 189/312/278 410/312/278 409/313/278
f 266/80/278 265/67/278 361/67/278 362/80/278
f 258/17/279 259/16/279 355/16/279 354/17/279
f 173/314/262 181/313/262 409/313/262 408/314/262
f 282/219/280 281/214/280 377/214/280 378/219/280
f 165/315/281 173/314/281 408/314/281 407/315/281
f 275/153/270 274/149/270 370/149/270 371/153/270
f 157/316/269 165/315/269 407/315/269 406/316/269
f 287/274/282 286/262/282 382/262/282 383/274/282
f 312/314/281 311/315/281 343/315/281 344/314/281
f 45/317/257 37/300/257 295/300/257 296/317/257
f 157/316/257 149/297/257 309/297/257 310/316/257
f 53/318/257 45/317/257 296/317/257 297/318/257
f 165/315/257 157/316/257 310/316/257 311/315/257
f 61/319/257 53/318/257 297/318/257 298/319/257
f 173/314/257 165/315/257 311/315/257 312/314/257
f 69/320/257 61/319/257 298/319/257 299/320/257
f 181/313/257 173/314/257 312/314/257 313/313/257
f 77/321/257 69/320/257 299/320/257 300/321/257
f 189/312/257 181/313/257 313/313/257 314/312/257
f 85/322/257 77/321/257 300/321/257 301/322/257
f 197/311/257 189/312/257 314/312/257 315/311/257
f 93/323/257 85/322/257 301/322/257 302/323/257
f 205/310/257 197/311/257 315/311/257 316/310/257
f 101/324/257 93/323/257 302/323/257 303/324/257
f 213/308/257 205/310/257 316/310/257 317/308/257
f 109/325/257 101/324/257 303/324/257 304/325/257
f 5/307/257 1/309/257 291/309/257 290/307/257
f 221/306/257 213/308/257 317/308/257 318/306/257
f 117/326/257 109/325/257 304/325/257 305/326/257
f 13/305/257 5/307/257 290/307/257 292/305/257
f 229/304/257 221/306/257 318/306/257 319/304/257
f 125/327/257 117/326/257 305/326/257 306/327/257
f 21/303/257 13/305/257 292/305/257 293/303/257
f 237/301/257 229/304/257 319/304/257 320/301/257
f 133/328/257 125/327/257 306/327/257 307/328/257
f 29/299/257 21/303/257 293/303/257 294/299/257
f 245/302/257 237/301/257 320/301/257 321/302/257
f 141/298/257 133/328/257 307/328/257 308/298/257
f 37/300/257 29/299/257 294/299/257 295/300/257
f 1/309/257 245/302/257 321/302/257 291/309/257
f 322/307/257 323/309/257 353/302/257 352/301/257 351/304/257 350/306/257 349/308/257 348/310/257 347/311/257 346/312/257 345/313/257 344/314/257 343/315/257 342/316/257 341/297/257 340/298/257 339/328/257 338/327/257 337/326/257 336/325/257 335/324/257 334/323/257 333/322/257 332/321/257 331/320/257 330/319/257 329/318/257 328/317/257 327/300/257 326/299/257 325/303/257 324/305/257
f 299/320/283 298/319/283 330/319/283 331/320/283
f 313/313/262 312/314/262 344/314/262 345/313/262
f 300/321/277 299/320/277 331/320/277 332/321/277
f 314/312/278 313/313/278 345/313/278 346/312/278
f 301/322/284 300/321/284 332/321/284 333/322/284
f 315/311/274 314/312/274 346/312/274 347/311/274
f 302/323/264 301/322/264 333/322/264 334/323/264
f 316/310/273 315/311/273 347/311/273 348/310/273
f 303/324/282 302/323/282 334/323/282 335/324/282
f 317/308/271 316/310/271 348/310/271 349/308/271
f 304/325/285 303/324/285 335/324/285 336/325/285
f 290/307/270 291/309/270 323/309/270 322/307/270
f 318/306/266 317/308/266 349/308/266 350/306/266
f 305/326/276 304/325/276 336/325/276 337/326/276
f 292/305/268 290/307/268 322/307/268 324/305/268
f 319/304/267 318/306/267 350/306/267 351/304/267
f 306/327/272 305/326/272 337/326/272 338/327/272
f 293/303/259 292/305/259 324/305/259 325/303/259
f 320/301/265 319/304/265 351/304/265 352/301/265
f 307/328/279 306/327/279 338/327/279 339/328/279
f 294/299/263 293/303/263 325/303/263 326/299/263
f 321/302/261 320/301/261 352/301/261 353/302/261
f 308/298/260 307/328/260 339/328/260 340/298/260
f 295/300/258 294/299/258 326/299/258 327/300/258
f 291/309/286 321/302/286 353/302/286 323/309/286
f 309/297/275 308/298/275 340/298/275 341/297/275
f 296/317/287 295/300/287 327/300/287 328/317/287
f 310/316/288 309/297/288 341/297/288 342/316/288
f 297/318/289 296/317/289 328/317/289 329/318/289
f 311/315/269 310/316/269 342/316/269 343/315/269
f 298/319/280 297/318/280 329/318/280 330/319/280
f 387/309/257 386/307/257 354/17/257 355/16/257
f 386/307/257 388/305/257 356/20/257 354/17/257
f 388/305/257 389/303/257 357/33/257 356/20/257
f 389/303/257 390/299/257 358/38/257 357/33/257
f 390/299/257 391/300/257 359/50/257 358/38/257
f 391/300/257 392/317/257 360/62/257 359/50/257
f 392/317/257 393/318/257 361/67/257 360/62/257
f 393/318/257 394/319/257 362/80/257 361/67/257
f 394/319/257 395/320/257 363/85/257 362/80/257
f 395/320/257 396/321/257 364/97/257 363/85/257
f 396/321/257 397/322/257 365/102/257 364/97/257
f 397/322/257 398/323/257 366/115/257 365/102/257
f 398/323/257 399/324/257 367/120/257 366/115/257
f 399/324/257 400/325/257 368/132/257 367/120/257
f 400/325/257 401/326/257 369/137/257 368/132/257
f 401/326/257 402/327/257 370/149/257 369/137/257
f 402/327/257 403/328/257 371/153/257 370/149/257
f 403/328/257 404/298/257 372/167/257 371/153/257
f 404/298/257 405/297/257 373/179/257 372/167/257
f 405/297/257 406/316/257 374/184/257 373/179/257
f 406/316/257 407/315/257 375/197/257 374/184/257
f 407/315/257 408/314/257 376/202/257 375/197/257
f 408/314/257 409/313/257 377/214/257 376/202/257
f 409/313/257 410/312/257 378/237/257 377/214/257
f 410/312/257 411/311/257 379/238/257 378/237/257
f 411/311/257 412/310/257 380/244/257 379/238/257
f 412/310/257 413/308/257 381/257/257 380/244/257
f 413/308/257 414/306/257 382/262/257 381/257/257
f 414/306/257 415/304/257 383/274/257 382/262/257
f 415/304/257 416/301/257 384/278/257 383/274/257
f 416/301/257 417/302/257 385/292/257 384/278/257
f 417/302/257 387/309/257 355/16/257 385/292/257
f 245/302/286 1/309/286 387/309/286 417/302/286
f 37/300/287 45/317/287 392/317/287 391/300/287
f 272/132/265 271/120/265 367/120/265 368/132/265
f 288/278/285 287/274/285 383/274/285 384/278/285
f 45/317/289 53/318/289 393/318/289 392/317/289
f 53/318/280 61/319/280 394/319/280 393/318/280
f 267/85/274 266/80/274 362/80/274 363/85/274
f 279/197/258 278/184/258 374/184/258 375/197/258
f 61/319/283 69/320/283 395/320/283 394/319/283
f 274/149/286 273/137/286 369/137/286 370/149/286
f 69/320/277 77/321/277 396/321/277 395/320/277
f 262/38/288 261/33/288 357/33/288 358/38/288
f 269/102/271 268/97/271 364/97/271 365/102/271
f 77/321/284 85/322/284 397/322/284 396/321/284
f 281/214/289 280/202/289 376/202/289 377/214/289
f 85/322/264 93/323/264 398/323/264 397/322/264
f 93/323/282 101/324/282 399/324/282 398/323/282
f 276/167/268 275/153/268 371/153/268 372/167/268
f 101/324/285 109/325/285 400/325/285 399/324/285
f 283/238/283 282/237/283 378/237/283 379/238/283
f 271/120/267 270/115/267 366/115/267 367/120/267
f 109/325/276 117/326/276 401/326/276 400/325/276
f 278/184/263 277/179/263 373/179/263 374/184/263
f 117/326/272 125/327/272 402/327/272 401/326/272
f 125/327/279 133/328/279 403/328/279 402/327/279
f 285/257/284 284/244/284 380/244/284 381/257/284
f 133/328/260 141/298/260 404/298/260 403/328/260
f 273/137/261 272/132/261 368/132/261 369/137/261
f 141/298/275 149/297/275 405/297/275 404/298/275
f 264/62/281 263/50/281 359/50/281 360/62/281
f 280/202/287 279/197/287 375/197/287 376/202/287
f 149/297/288 157/316/288 406/316/288 405/297/288
